<svg width="48" height="48" viewBox="0 0 48 48" fill="none" xmlns="http://www.w3.org/2000/svg">
<g clip-path="url(#clip0_2915_5237)">
<path fill-rule="evenodd" clip-rule="evenodd" d="M10.4448 10.457H20.322V20.2695H10.4448V10.457ZM13.9643 5.7968e-06H9.03158C7.85305 -0.00133817 6.686 0.231027 5.59825 0.6836C4.50204 1.13666 3.50575 1.80028 2.66603 2.63672C1.82798 3.4748 1.16293 4.46884 0.708599 5.56251C0.244419 6.65365 0.0035033 7.82636 1.1179e-05 9.01172V15.0938H4.0049V9.01172C4.00902 8.35433 4.14201 7.70409 4.39639 7.09766C4.64606 6.48833 5.01468 5.93462 5.4808 5.46876C6.42305 4.53021 7.70019 4.00333 9.03158 4.00391H13.9643V5.7968e-06ZM38.9684 5.7968e-06H35.7465V3.9961H38.9684C39.6273 4.00061 40.2788 4.13329 40.8867 4.38672C41.4953 4.63985 42.0495 5.00717 42.5192 5.46876L42.6562 5.60938C43.0607 6.04716 43.3853 6.55217 43.6154 7.10157C43.8715 7.70609 44.0046 8.3554 44.0069 9.01172V15.0938H48.0118V9.01172C48.0127 6.6911 47.1118 4.46052 45.4984 2.78907L45.3536 2.64454C44.5137 1.80833 43.5174 1.14475 42.4213 0.691412C41.3279 0.23412 40.154 -0.00093528 38.9684 5.7968e-06ZM48 38.9883V32.2344H43.9951V38.9883C43.9928 39.6446 43.8598 40.2939 43.6036 40.8984C43.3471 41.507 42.9749 42.0601 42.5075 42.5274C42.0427 42.9942 41.4902 43.365 40.8816 43.6184C40.2729 43.8718 39.6201 44.0028 38.9606 44.0039H35.7465V48H38.9684C40.1538 47.9991 41.3274 47.7647 42.4217 47.3103C43.5161 46.8558 44.5098 46.1901 45.3457 45.3516C46.1824 44.5123 46.8472 43.5186 47.3032 42.4258C47.7555 41.3359 47.9883 40.1679 47.9883 38.9883H48ZM9.03158 48H13.9643V44.0039H9.03158C8.37142 44.0033 7.71789 43.8725 7.10853 43.6191C6.49918 43.3657 5.94601 42.9947 5.4808 42.5274L5.37902 42.4336C4.94011 41.9719 4.59334 41.431 4.35724 40.8399C4.12096 40.2511 4.00003 39.6225 4.00099 38.9883V32.2344H1.1179e-05V38.9883C-0.00181551 40.1359 0.22024 41.273 0.653791 42.3359C1.08589 43.409 1.72276 44.388 2.52901 45.2188L2.65037 45.3555C3.49169 46.1918 4.48923 46.8554 5.58651 47.3086C6.67827 47.7615 7.84922 47.9938 9.03158 47.9922V48ZM35.0732 35.0703H37.5826V37.543H35.0732V35.0703ZM30.2344 35.0703H32.7556V37.4141H27.7172V32.6055H30.1444V30.1641H32.6264V25.2969H35.1554V27.6875H37.5513V30.1602H35.1554V32.6328H30.2344V35.0664V35.0703ZM22.761 30.125H25.1999V27.6523H22.851V25.1797H25.1999V22.707H22.8001V25.1797H20.2789V22.707H22.757V15.3633H25.2743V22.7031H27.7133V25.1758H30.1131V22.7031H32.6303V25.1758H30.2344V27.6484H27.7172V32.5156H25.2782V37.4258H22.761V30.125ZM35.034 22.7031H37.5513V25.1758H35.034V22.7031ZM15.3658 22.7031H17.8831V25.1758H15.3658V22.7031ZM10.4448 22.7031H12.9621V25.1758H10.4448V22.7031ZM22.761 10.457H25.2782V12.9297H22.761V10.457ZM10.4057 27.6875H20.2789V37.5H10.4057V27.6875ZM12.8055 30.0781H17.8948V35.1211H12.8055V30.0781ZM27.6819 10.4609H37.5513V20.2695H27.678V10.457L27.6819 10.4609ZM30.0817 12.8438H35.171V17.8867H30.0817V12.8398V12.8438ZM12.8564 12.8438H17.9457V17.8867H12.8564V12.8398V12.8438Z" fill="url(#paint0_linear_2915_5237)"/>
</g>
<defs>
<linearGradient id="paint0_linear_2915_5237" x1="0" y1="0" x2="48.0118" y2="0" gradientUnits="userSpaceOnUse">
<stop stop-color="#06A8FE"/>
<stop offset="1" stop-color="#6ED199"/>
</linearGradient>
<clipPath id="clip0_2915_5237">
<rect width="48" height="48" fill="white"/>
</clipPath>
</defs>
</svg>
