<?xml version="1.0" encoding="utf-8"?>
<!-- Generator: Adobe Illustrator 19.0.1, SVG Export Plug-In . SVG Version: 6.00 Build 0)  -->
<svg version="1.1" id="Layer_1" xmlns="http://www.w3.org/2000/svg" xmlns:xlink="http://www.w3.org/1999/xlink" x="0px" y="0px"
	 viewBox="0 0 69 69" style="enable-background:new 0 0 69 69;" xml:space="preserve">
<style type="text/css">
	.st0{fill:#425152;}
</style>
<g>
	<path class="st0" d="M19.2,33.6c-2.3,0-4.3-1.9-4.3-4.3s1.9-4.3,4.3-4.3s4.3,1.9,4.3,4.3S21.5,33.6,19.2,33.6z M35.1,33.6
		c-2.3,0-4.3-1.9-4.3-4.3s1.9-4.3,4.3-4.3s4.3,1.9,4.3,4.3S37.5,33.6,35.1,33.6z M51.1,33.6c-2.3,0-4.3-1.9-4.3-4.3s1.9-4.3,4.3-4.3
		c2.3,0,4.3,1.9,4.3,4.3S53.4,33.6,51.1,33.6z"/>
	<path class="st0" d="M26.1,51.7c-0.8-0.2-1.6,0.1-2.2,0.6c-4.7,4.7-10.3,6-14.2,6.3c2.5-3.1,3.7-6.4,4.6-8.6c0.1-0.4,0.3-0.7,0.4-1
		c0.4-1,0.1-2.1-0.8-2.8C8,41.7,4.8,35.7,4.8,29.4c0-12.8,13.3-23.2,29.7-23.2s29.7,10.4,29.7,23.2c0,3.6-1.1,7.1-3,10.2
		c1.4,0.8,2.7,1.7,3.8,2.7c2.5-3.9,3.9-8.3,3.9-12.9C69,14,53.5,1.5,34.5,1.5S0.1,14,0.1,29.4c0,7.2,3.5,14.2,9.6,19.3
		c-1.1,2.9-2.8,7.1-7,9.9c-0.8,0.5-1.2,1.5-1,2.4c0.2,0.9,0.9,1.6,1.8,1.8c0.2,0,1.9,0.4,4.5,0.4c4.6,0,12-1.1,18.3-6.8
		c1.8,0.4,3.7,0.6,5.5,0.7c-0.6-1.5-1-3.1-1-4.8C29.2,52.3,27.6,52,26.1,51.7z"/>
	<circle class="st0" cx="19.2" cy="29.3" r="4.3"/>
	<circle class="st0" cx="35.1" cy="29.3" r="4.3"/>
	<circle class="st0" cx="51.1" cy="29.3" r="4.3"/>
	<path class="st0" d="M60.6,61.6c2.9-2.2,4.7-5.3,4.7-8.7c0-3-1.4-5.7-3.6-7.8c-0.9-0.8-1.9-1.5-3-2.1c-2.4-1.3-5.4-2.1-8.5-2.1
		c-8.3,0-15.1,5.4-15.1,12c0,0,0,0,0,0c0,1.3,0.3,2.6,0.8,3.7c2,4.8,7.6,8.3,14.3,8.3c1.5,0,2.9-0.2,4.2-0.5
		c4.3,4.3,10.1,3.1,10.1,3.1C61.9,65.7,61.1,62.9,60.6,61.6z"/>
</g>
</svg>
