<?xml version="1.0" encoding="UTF-8" standalone="no"?>
<!DOCTYPE svg PUBLIC "-//W3C//DTD SVG 1.1//EN" "http://www.w3.org/Graphics/SVG/1.1/DTD/svg11.dtd">
<svg width="100%" height="100%" viewBox="0 0 1000 1000" version="1.1" xmlns="http://www.w3.org/2000/svg" xmlns:xlink="http://www.w3.org/1999/xlink" xml:space="preserve" xmlns:serif="http://www.serif.com/" style="fill-rule:evenodd;clip-rule:evenodd;stroke-linejoin:round;stroke-miterlimit:2;">
    <path d="M990,52.9L578.8,233.4L578.8,947.2L990,808.3L990,52.9Z" style="fill:rgb(77,77,77);"/>
    <g transform="matrix(0.760044,0,0,1,237.556,0)">
        <path d="M235.5,52.9L235.5,284L279.6,284L279.6,96.9L945.9,96.9L945.9,764.3L279.6,764.3L279.6,577.2L235.5,577.2L235.5,808.4L990,808.4L990,52.9L235.5,52.9Z" style="fill:rgb(77,77,77);"/>
    </g>
    <path d="M498.3,363.9L165.3,363.9L165.3,277.5L10,430.6L165.3,583.7L165.3,497.3L498.2,497.3L498.2,363.9L498.3,363.9Z" style="fill:rgb(77,77,77);"/>
</svg>
