<?xml version="1.0" encoding="UTF-8" standalone="no"?>
<!DOCTYPE svg PUBLIC "-//W3C//DTD SVG 1.1//EN" "http://www.w3.org/Graphics/SVG/1.1/DTD/svg11.dtd">
<svg width="100%" height="100%" viewBox="0 0 1000 1000" version="1.1" xmlns="http://www.w3.org/2000/svg" xmlns:xlink="http://www.w3.org/1999/xlink" xml:space="preserve" xmlns:serif="http://www.serif.com/" style="fill-rule:evenodd;clip-rule:evenodd;stroke-linejoin:round;stroke-miterlimit:2;">
    <path d="M663.3,500.1C663.3,455 647.3,416.5 615.4,384.6C583.5,352.7 545,336.7 499.9,336.7C454.8,336.7 416.3,352.7 384.4,384.6C352.5,416.5 336.5,455 336.5,500.1C336.5,545.2 352.5,583.7 384.4,615.6C416.3,647.5 454.8,663.5 499.9,663.5C545,663.5 583.5,647.5 615.4,615.6C647.3,583.7 663.3,545.2 663.3,500.1ZM990,430.5L990,572.1C990,577.2 988.3,582.1 984.9,586.8C981.5,591.5 977.3,594.3 972.2,595.1L854.2,613C846.1,636 837.8,655.3 829.3,671.1C844.2,692.4 866.9,721.7 897.6,759.2C901.8,764.3 904,769.6 904,775.1C904,780.6 902.1,785.5 898.3,789.8C886.8,805.5 865.8,828.5 835.2,858.7C804.6,888.9 784.6,904 775.2,904C770.1,904 764.6,902.1 758.6,898.3L670.5,829.4C651.8,839.2 632.4,847.3 612.4,853.7C605.6,911.5 599.4,951.1 593.9,972.4C590.9,984.3 583.3,990.3 570.9,990.3L429.3,990.3C423.4,990.3 418.2,988.5 413.7,984.9C409.2,981.3 406.8,976.7 406.3,971.2L388.4,853.7C367.5,846.9 348.4,839 331,830.1L241,898.4C236.8,902.2 231.4,904.1 225.1,904.1C219.2,904.1 213.9,901.8 209.2,897.1C155.6,848.6 120.5,812.8 103.9,789.9C100.9,785.7 99.4,780.8 99.4,775.2C99.4,770.1 101.1,765.2 104.5,760.5C110.9,751.6 121.7,737.4 137,718C152.3,698.6 163.8,683.6 171.5,673C160,651.7 151.3,630.7 145.4,609.9L28.5,592.5C22.9,591.6 18.5,589 15.1,584.5C11.7,580 10,575 10,569.5L10,427.9C10,422.8 11.7,417.9 15.1,413.2C18.5,408.5 22.5,405.7 27.2,404.9L145.8,387C151.7,367.5 160,347.9 170.7,328.3C153.7,304.1 130.9,274.7 102.4,240.2C98.2,235.1 96,230 96,224.9C96,220.7 97.9,215.8 101.7,210.2C112.8,194.9 133.7,172 164.6,141.6C195.5,111.2 215.6,95.9 224.9,95.9C230.5,95.9 236,98 241.5,102.3L329.6,170.6C348.3,160.8 367.7,152.7 387.7,146.3C394.5,88.5 400.7,48.9 406.2,27.6C409.2,15.7 416.8,9.7 429.2,9.7L570.8,9.7C576.7,9.7 581.9,11.5 586.4,15.1C590.9,18.7 593.3,23.3 593.8,28.8L611.7,146.3C632.6,153.1 651.7,161 669.1,169.9L759.7,101.6C763.5,97.8 768.6,95.9 775,95.9C780.6,95.9 785.9,98 790.9,102.3C845.8,152.9 880.9,189.1 896.2,210.8C899.2,214.2 900.7,218.9 900.7,224.8C900.7,229.9 899,234.8 895.6,239.5C889.2,248.4 878.4,262.6 863.1,282C847.8,301.4 836.3,316.4 828.6,327C839.7,348.3 848.4,369.1 854.7,389.6L971.5,407.5C977.1,408.4 981.5,411 984.9,415.5C988.3,419.9 990,424.9 990,430.5Z" style="fill:rgb(181,181,181);fill-rule:nonzero;"/>
</svg>
