<?xml version="1.0" encoding="UTF-8" standalone="no"?>
<!DOCTYPE svg PUBLIC "-//W3C//DTD SVG 1.1//EN" "http://www.w3.org/Graphics/SVG/1.1/DTD/svg11.dtd">
<svg width="100%" height="100%" viewBox="0 0 647 651" version="1.1" xmlns="http://www.w3.org/2000/svg" xmlns:xlink="http://www.w3.org/1999/xlink" xml:space="preserve" xmlns:serif="http://www.serif.com/" style="fill-rule:evenodd;clip-rule:evenodd;stroke-linejoin:round;stroke-miterlimit:2;">
    <g transform="matrix(0.850685,0,0,0.974937,138.421,173.967)">
        <g id="Artboard1">
            <g transform="matrix(12.3403,0,0,10.7675,-297.366,-292.468)">
                <path d="M33.094,65.313C28.182,63.512 23.942,60.247 20.946,55.958C17.95,51.669 16.344,46.564 16.344,41.332C16.344,36.101 17.95,30.996 20.946,26.707C23.942,22.418 28.182,19.153 33.094,17.352C33.421,17.21 33.696,16.969 33.879,16.663C34.063,16.357 34.147,16.001 34.118,15.645L34.118,13.256C34.141,12.943 34.051,12.632 33.862,12.381C33.674,12.13 33.401,11.956 33.094,11.891C32.853,11.865 32.612,11.926 32.411,12.061C26.197,14.036 20.773,17.937 16.924,23.199C13.074,28.462 11,34.812 11,41.332C11,47.853 13.074,54.203 16.924,59.466C20.773,64.728 26.197,68.629 32.411,70.604C32.553,70.686 32.712,70.734 32.876,70.742C33.04,70.751 33.204,70.721 33.354,70.655C33.504,70.588 33.636,70.487 33.739,70.359C33.842,70.232 33.913,70.081 33.947,69.921C34.118,69.751 34.118,69.58 34.118,69.239L34.118,66.849C34.064,66.535 33.945,66.237 33.769,65.972C33.593,65.707 33.363,65.483 33.094,65.313ZM51.186,12.061C51.044,11.979 50.885,11.931 50.721,11.922C50.557,11.914 50.394,11.944 50.244,12.01C50.094,12.077 49.962,12.178 49.859,12.306C49.755,12.433 49.684,12.583 49.65,12.744C49.479,12.915 49.479,13.085 49.479,13.427L49.479,15.816C49.509,16.16 49.616,16.492 49.794,16.788C49.971,17.084 50.214,17.335 50.503,17.523C55.415,19.324 59.656,22.589 62.651,26.878C65.647,31.167 67.254,36.272 67.254,41.503C67.254,46.735 65.647,51.84 62.651,56.129C59.656,60.417 55.415,63.683 50.503,65.483C50.176,65.626 49.901,65.867 49.718,66.173C49.534,66.479 49.451,66.835 49.479,67.19L49.479,69.58C49.456,69.893 49.547,70.203 49.735,70.454C49.923,70.706 50.196,70.88 50.503,70.945C50.744,70.97 50.986,70.91 51.186,70.775C57.397,68.772 62.812,64.851 66.653,59.576C70.495,54.301 72.565,47.943 72.565,41.418C72.565,34.892 70.495,28.535 66.653,23.26C62.812,17.985 57.397,14.064 51.186,12.061Z" style="fill:rgb(181,181,181);"/>
            </g>
            <g transform="matrix(12.3403,0,0,10.7675,-297.366,-292.468)">
                <path d="M53.234,47.477C53.234,41.503 49.65,39.455 42.481,38.602C37.361,37.919 36.337,36.554 36.337,34.164C36.337,31.774 38.044,30.238 41.457,30.238C44.529,30.238 46.236,31.263 47.09,33.823C47.178,34.07 47.339,34.285 47.553,34.437C47.767,34.59 48.022,34.673 48.284,34.676L51.015,34.676C51.173,34.68 51.33,34.652 51.477,34.593C51.623,34.534 51.757,34.447 51.868,34.335C51.98,34.223 52.068,34.09 52.127,33.943C52.185,33.797 52.214,33.64 52.21,33.481L52.21,33.311C51.88,31.461 50.948,29.772 49.559,28.507C48.17,27.241 46.402,26.47 44.529,26.313L44.529,22.217C44.529,21.534 44.017,21.022 43.164,20.851L40.604,20.851C39.921,20.851 39.409,21.363 39.238,22.217L39.238,26.142C34.118,26.825 30.875,30.238 30.875,34.506C30.875,40.138 34.289,42.356 41.457,43.21C46.236,44.063 47.772,45.088 47.772,47.819C47.772,50.55 45.383,52.427 42.14,52.427C37.702,52.427 36.166,50.549 35.654,47.989C35.603,47.707 35.456,47.451 35.239,47.265C35.021,47.078 34.746,46.972 34.46,46.965L31.558,46.965C31.4,46.961 31.243,46.989 31.096,47.048C30.949,47.107 30.816,47.195 30.705,47.306C30.593,47.418 30.505,47.551 30.446,47.698C30.388,47.845 30.359,48.002 30.363,48.16L30.363,48.331C31.046,52.597 33.777,55.669 39.409,56.523L39.409,60.619C39.409,61.302 39.921,61.814 40.774,61.985L43.335,61.985C44.017,61.985 44.529,61.473 44.7,60.619L44.7,56.523C49.821,55.669 53.234,52.085 53.234,47.477Z" style="fill:rgb(181,181,181);"/>
            </g>
        </g>
    </g>
</svg>
