<?xml version="1.0" encoding="UTF-8" standalone="no"?>
<!DOCTYPE svg PUBLIC "-//W3C//DTD SVG 1.1//EN" "http://www.w3.org/Graphics/SVG/1.1/DTD/svg11.dtd">
<svg width="100%" height="100%" viewBox="0 0 649 649" version="1.1" xmlns="http://www.w3.org/2000/svg" xmlns:xlink="http://www.w3.org/1999/xlink" xml:space="preserve" xmlns:serif="http://www.serif.com/" style="fill-rule:evenodd;clip-rule:evenodd;stroke-linejoin:round;stroke-miterlimit:2;">
    <g transform="matrix(1.00067,0,0,1.00067,-1.55387,-4.11315)">
        <path d="M383.84,227.545C533.887,233.86 647.421,263.388 647.421,298.864C647.421,334.341 533.881,363.87 383.835,370.182L383.835,628.523L261.357,628.523L261.357,370.08C112.458,363.564 0.091,334.159 0.091,298.864C0.091,263.571 112.461,234.166 261.352,227.645L261.352,146.546L68.912,146.546L68.912,24.058L576.28,24.058L576.28,146.546L383.84,146.546L383.84,227.545ZM261.352,234.527C132.155,240.095 35.503,262.587 35.503,289.482C35.503,320.565 164.567,345.759 323.759,345.759C482.951,345.759 612.009,320.565 612.009,289.482C612.009,262.426 514.195,239.826 383.84,234.429L383.84,326.582L261.352,326.582L261.352,234.527Z" style="fill:rgb(181,181,181);"/>
    </g>
</svg>
