<svg width="60" height="59" viewBox="0 0 60 59" fill="none" xmlns="http://www.w3.org/2000/svg">
<g clip-path="url(#clip0_303_4957)">
<g opacity="0.8">
<path d="M30.3902 0.172078C13.9768 0.0277998 0.645572 13.1331 0.792338 29.2683C0.939104 44.9465 13.9524 57.7392 29.901 57.8835C46.3143 58.0278 59.6456 44.9225 59.4988 28.7873C59.352 13.1091 46.3388 0.316357 30.3902 0.172078ZM22.9296 14.3595C23.0029 14.1431 23.1742 13.9988 23.4677 14.0709C24.0058 14.1911 28.3355 15.1049 28.3355 15.1049C28.3355 15.1049 37.3371 13.7583 37.6551 13.6862C37.9242 13.6381 38.1199 13.7824 38.1688 14.0228C38.1932 14.119 39.7098 19.1447 41.0307 23.5212H19.9453C21.3151 19.313 22.8317 14.5999 22.9296 14.3595ZM43.9416 39.1994C43.7459 42.1331 41.3243 44.5137 38.34 44.7061C34.8421 44.9225 31.9557 42.2052 31.9557 38.8147C31.9557 38.6464 31.9557 38.4781 31.9801 38.3097C31.4909 38.1414 30.9528 38.0693 30.4146 38.0693C29.852 38.0693 29.3139 38.1654 28.7758 38.3338C28.8002 38.5021 28.8002 38.6464 28.8002 38.8147C28.8002 42.2052 25.9138 44.9225 22.4159 44.7061C19.4316 44.5137 17.01 42.1331 16.8143 39.1994C16.6186 35.7848 19.3827 32.9233 22.8073 32.9233C25.3023 32.9233 27.4549 34.4382 28.3599 36.5784C29.0204 36.386 29.7053 36.2658 30.4146 36.2658C31.0995 36.2658 31.76 36.362 32.396 36.5543C33.301 34.4142 35.4291 32.9233 37.9486 32.9233C41.3976 32.9233 44.1617 35.7848 43.9416 39.1994ZM49.6655 30.9515H11.1638C11.1149 30.9515 11.0904 30.8794 11.1394 30.8553C12.4113 30.2061 19.7986 26.6232 30.4636 26.6232C41.153 26.6232 48.4424 30.182 49.6899 30.8553C49.7388 30.8794 49.7144 30.9515 49.6655 30.9515Z" fill="#323639"/>
<path d="M37.9486 43.0229C40.2993 43.0229 42.2049 41.1497 42.2049 38.8389C42.2049 36.5281 40.2993 34.6548 37.9486 34.6548C35.598 34.6548 33.6924 36.5281 33.6924 38.8389C33.6924 41.1497 35.598 43.0229 37.9486 43.0229Z" fill="#323639"/>
<path d="M22.8317 43.0229C25.1824 43.0229 27.0879 41.1497 27.0879 38.8389C27.0879 36.5281 25.1824 34.6548 22.8317 34.6548C20.4811 34.6548 18.5755 36.5281 18.5755 38.8389C18.5755 41.1497 20.4811 43.0229 22.8317 43.0229Z" fill="#323639"/>
</g>
</g>
<defs>
<clipPath id="clip0_303_4957">
<rect width="59" height="58" fill="white" transform="translate(0.645569 0.027832)"/>
</clipPath>
</defs>
</svg>
