<svg width="25" height="26" viewBox="0 0 25 26" fill="none" xmlns="http://www.w3.org/2000/svg">
<g clip-path="url(#clip0_275_1437)">
<path d="M2.07509 1.39002C2.00718 1.39002 1.9488 1.40042 1.89911 1.42101C1.84715 1.44285 1.79746 1.47779 1.74984 1.52563L1.74756 1.52771C1.70098 1.57451 1.66703 1.62422 1.64591 1.67684C1.62376 1.73196 1.61279 1.79914 1.61279 1.8788V24.1216C1.61279 24.2013 1.62376 24.2683 1.64612 24.3236C1.66724 24.3764 1.70119 24.4259 1.74777 24.4731L1.75005 24.4752C1.79746 24.5231 1.84735 24.558 1.89932 24.5796C1.94901 24.6004 2.00739 24.6108 2.0753 24.6108H20.8495C20.9286 24.6108 20.9955 24.5994 21.0506 24.5776C21.1029 24.5559 21.1522 24.5218 21.199 24.4752L21.2013 24.4731C21.2479 24.4259 21.2818 24.3764 21.3029 24.3236C21.3249 24.2683 21.3361 24.2013 21.3361 24.1216C21.3361 16.7076 21.3361 9.29329 21.3361 1.8788C21.3361 1.79935 21.3249 1.73196 21.3029 1.67684C21.2816 1.62422 21.2477 1.57451 21.2013 1.52771L21.199 1.52542C21.1522 1.47842 21.1029 1.44451 21.0506 1.4233C20.9955 1.40104 20.9286 1.38981 20.8495 1.38981H2.07509V1.39002ZM9.02438 9.26209V10.6276C8.33952 10.8029 8.37181 12.6879 9.13308 12.6879C9.36765 12.6836 10.4546 14.2701 10.6144 14.5345C10.9247 15.048 10.6144 15.236 10.6144 15.5867C7.28323 16.3419 6.32197 15.8633 6.32197 19.2501H12.1427H17.9637C17.9637 15.8633 17.0022 16.3419 13.6713 15.5867C13.6713 15.1699 13.3961 14.99 13.6713 14.5345C13.9816 14.0214 14.5501 13.3032 15.1344 12.6877C15.937 12.7027 15.9573 10.8056 15.2611 10.6276V9.26209C15.2613 5.97249 9.02438 5.97249 9.02438 9.26209ZM1.45399 0.343613C1.64902 0.261872 1.85564 0.221313 2.07509 0.221313H20.8493C21.0735 0.221313 21.2841 0.26104 21.4818 0.341533C21.6812 0.422441 21.8596 0.542037 22.0186 0.70115L22.0189 0.701358L22.0201 0.702398L22.0213 0.703646C22.1799 0.863384 22.2992 1.04267 22.3795 1.24297C22.4596 1.44181 22.499 1.65313 22.499 1.87859V4.26987H23.9534C24.0617 4.26987 24.1629 4.29317 24.2604 4.33913C24.3706 4.39113 24.4565 4.46268 24.5242 4.55378L24.5227 4.55482C24.5753 4.62554 24.6146 4.69937 24.6399 4.78008L24.6378 4.7807C24.6633 4.86161 24.6765 4.94085 24.6765 5.02072V8.30949C24.6765 8.38312 24.6631 8.45716 24.6358 8.52892C24.6254 8.55804 24.6128 8.58653 24.5975 8.61461C24.5565 8.6897 24.4995 8.75812 24.4269 8.81491C24.3894 8.84548 24.3496 8.87148 24.3076 8.8929L24.3072 8.89207L24.3053 8.8929C24.2126 8.93949 24.1186 8.963 24.0221 8.963H22.4988V10.6519H23.9532C24.0629 10.6519 24.1648 10.675 24.2625 10.7211L24.2621 10.722C24.371 10.7738 24.4565 10.8449 24.5242 10.9356L24.5227 10.9368C24.5689 10.9988 24.6043 11.0627 24.6289 11.1284C24.6606 11.2135 24.6765 11.2981 24.6765 11.3824V14.6913C24.6765 14.7901 24.6534 14.8856 24.6068 14.9781C24.5737 15.0438 24.532 15.1029 24.4817 15.1532L24.4805 15.152C24.4258 15.2069 24.3672 15.25 24.3051 15.2807L24.3041 15.2791C24.2115 15.3255 24.1176 15.3485 24.0219 15.3485H22.4986V17.0376H23.953C24.0405 17.0376 24.1236 17.0522 24.2055 17.0811C24.3115 17.1186 24.3979 17.1733 24.4695 17.2452L24.4689 17.2456C24.543 17.3189 24.5977 17.4072 24.6329 17.509H24.6322L24.6329 17.511C24.6618 17.5947 24.6763 17.6801 24.6763 17.7646V21.0486C24.6763 21.1074 24.6685 21.1667 24.6525 21.2268C24.6484 21.243 24.6438 21.2597 24.6385 21.2763C24.6055 21.3755 24.5529 21.4608 24.4817 21.5326C24.4287 21.5858 24.3708 21.6284 24.3074 21.6605C24.2153 21.7073 24.1202 21.7304 24.0219 21.7304H22.4986V24.1214C22.4986 24.3469 22.4592 24.5582 22.3791 24.7573C22.2986 24.9571 22.1797 25.1362 22.0213 25.296L22.0207 25.2968L22.0191 25.2985L22.0182 25.2989C21.8592 25.4586 21.6808 25.5784 21.4812 25.6591C21.2835 25.7396 21.0729 25.7793 20.8487 25.7793H2.07509C1.85543 25.7793 1.64902 25.7388 1.45399 25.6566C1.26228 25.5765 1.08837 25.4576 0.930402 25.2995L0.929781 25.2987L0.928539 25.2978L0.927504 25.2966C0.768709 25.1368 0.649664 24.9573 0.569128 24.7571C0.489006 24.5584 0.449463 24.3471 0.449463 24.1216V1.8788C0.449463 1.65354 0.489006 1.44202 0.568921 1.24318C0.649664 1.04288 0.768709 0.8638 0.92709 0.704062L0.927504 0.703854L0.928125 0.703022L0.929574 0.701566C1.08775 0.543077 1.26186 0.424105 1.45399 0.343613Z" fill="#D9D9D9" fill-opacity="0.95"/>
</g>
<defs>
<clipPath id="clip0_275_1437">
<rect width="24.2273" height="25.5582" fill="white" transform="translate(0.449463 0.221313)"/>
</clipPath>
</defs>
</svg>
