<svg width="33" height="26" viewBox="0 0 33 26" fill="none" xmlns="http://www.w3.org/2000/svg">
<rect x="9.31451" y="9.37207" width="15.7746" height="7.24027" fill="white" stroke="#D9D9D9" stroke-width="1.5"/>
<ellipse cx="17.2019" cy="12.9921" rx="1.40646" ry="1.4062" fill="white"/>
<ellipse cx="17.2019" cy="12.9921" rx="1.40646" ry="1.4062" fill="#D9D9D9"/>
<path fill-rule="evenodd" clip-rule="evenodd" d="M32.4378 4.84075C33.1048 4.4559 33.1048 3.49329 32.4378 3.10844L27.5289 0.275964C26.8622 -0.10871 26.0291 0.372428 26.0291 1.14212V2.85895H7.51514C6.96285 2.85895 6.51514 3.30667 6.51514 3.85895V4.08996C6.51514 4.64224 6.96285 5.08996 7.51514 5.08996H26.0291V6.80707C26.0291 7.57676 26.8622 8.0579 27.5289 7.67323L32.4378 4.84075Z" fill="white"/>
<path fill-rule="evenodd" clip-rule="evenodd" d="M32.4378 4.84075C33.1048 4.4559 33.1048 3.49329 32.4378 3.10844L27.5289 0.275964C26.8622 -0.10871 26.0291 0.372428 26.0291 1.14212V2.85895H7.51514C6.96285 2.85895 6.51514 3.30667 6.51514 3.85895V4.08996C6.51514 4.64224 6.96285 5.08996 7.51514 5.08996H26.0291V6.80707C26.0291 7.57676 26.8622 8.0579 27.5289 7.67323L32.4378 4.84075Z" fill="#D9D9D9"/>
<path fill-rule="evenodd" clip-rule="evenodd" d="M1.39533 21.0382C0.728374 21.423 0.728372 22.3856 1.39533 22.7705L6.30421 25.6029C6.97088 25.9876 7.804 25.5065 7.804 24.7368L7.80399 23.02L26.318 23.02C26.8703 23.02 27.318 22.5723 27.318 22.02L27.318 21.789C27.318 21.2367 26.8703 20.789 26.318 20.789L7.80399 20.789L7.80399 19.0718C7.80399 18.3021 6.97088 17.821 6.30422 18.2057L1.39533 21.0382Z" fill="white"/>
<path fill-rule="evenodd" clip-rule="evenodd" d="M1.39533 21.0382C0.728374 21.423 0.728372 22.3856 1.39533 22.7705L6.30421 25.6029C6.97088 25.9876 7.804 25.5065 7.804 24.7368L7.80399 23.02L26.318 23.02C26.8703 23.02 27.318 22.5723 27.318 22.02L27.318 21.789C27.318 21.2367 26.8703 20.789 26.318 20.789L7.80399 20.789L7.80399 19.0718C7.80399 18.3021 6.97088 17.821 6.30422 18.2057L1.39533 21.0382Z" fill="#D9D9D9"/>
</svg>
