<svg width="33" height="26" viewBox="0 0 33 26" fill="none" xmlns="http://www.w3.org/2000/svg">
<rect x="8.93713" y="9.43225" width="15.7746" height="7.24027" fill="white" stroke="#4D4D4D" stroke-width="1.5"/>
<ellipse cx="16.8245" cy="13.0523" rx="1.40646" ry="1.4062" fill="white"/>
<ellipse cx="16.8245" cy="13.0523" rx="1.40646" ry="1.4062" fill="#4D4D4D"/>
<path fill-rule="evenodd" clip-rule="evenodd" d="M32.0604 4.90093C32.7274 4.51608 32.7274 3.55347 32.0604 3.16862L27.1515 0.336144C26.4849 -0.0485297 25.6518 0.432608 25.6518 1.2023V2.91913H7.13776C6.58547 2.91913 6.13776 3.36685 6.13776 3.91913V4.15014C6.13776 4.70242 6.58547 5.15014 7.13776 5.15014H25.6518V6.86725C25.6518 7.63694 26.4849 8.11808 27.1515 7.73341L32.0604 4.90093Z" fill="white"/>
<path fill-rule="evenodd" clip-rule="evenodd" d="M32.0604 4.90093C32.7274 4.51608 32.7274 3.55347 32.0604 3.16862L27.1515 0.336144C26.4849 -0.0485297 25.6518 0.432608 25.6518 1.2023V2.91913H7.13776C6.58547 2.91913 6.13776 3.36685 6.13776 3.91913V4.15014C6.13776 4.70242 6.58547 5.15014 7.13776 5.15014H25.6518V6.86725C25.6518 7.63694 26.4849 8.11808 27.1515 7.73341L32.0604 4.90093Z" fill="#4D4D4D"/>
<path fill-rule="evenodd" clip-rule="evenodd" d="M1.01795 21.0983C0.350994 21.4832 0.350992 22.4458 1.01795 22.8306L5.92683 25.6631C6.5935 26.0478 7.42661 25.5667 7.42661 24.797L7.42661 23.0802L25.9406 23.0802C26.4929 23.0802 26.9406 22.6325 26.9406 22.0802L26.9406 21.8492C26.9406 21.2969 26.4929 20.8492 25.9406 20.8492L7.42661 20.8492L7.42661 19.132C7.42661 18.3623 6.5935 17.8812 5.92684 18.2659L1.01795 21.0983Z" fill="white"/>
<path fill-rule="evenodd" clip-rule="evenodd" d="M1.01795 21.0983C0.350994 21.4832 0.350992 22.4458 1.01795 22.8306L5.92683 25.6631C6.5935 26.0478 7.42661 25.5667 7.42661 24.797L7.42661 23.0802L25.9406 23.0802C26.4929 23.0802 26.9406 22.6325 26.9406 22.0802L26.9406 21.8492C26.9406 21.2969 26.4929 20.8492 25.9406 20.8492L7.42661 20.8492L7.42661 19.132C7.42661 18.3623 6.5935 17.8812 5.92684 18.2659L1.01795 21.0983Z" fill="#4D4D4D"/>
</svg>
