<?xml version="1.0" encoding="UTF-8" standalone="no"?>
<!DOCTYPE svg PUBLIC "-//W3C//DTD SVG 1.1//EN" "http://www.w3.org/Graphics/SVG/1.1/DTD/svg11.dtd">
<svg width="100%" height="100%" viewBox="0 0 647 651" version="1.1" xmlns="http://www.w3.org/2000/svg" xmlns:xlink="http://www.w3.org/1999/xlink" xml:space="preserve" xmlns:serif="http://www.serif.com/" style="fill-rule:evenodd;clip-rule:evenodd;stroke-linejoin:round;stroke-miterlimit:2;">
    <g transform="matrix(0.850685,0,0,0.974937,138.421,173.967)">
        <g id="Artboard1">
            <rect x="-162.718" y="-178.439" width="760.355" height="667.178" style="fill:none;"/>
            <g transform="matrix(1.89586,0,0,1.65425,-161.571,-99.7318)">
                <g>
                    <path d="M64.6,237.9C67,235.5 70.3,234.1 73.8,234.1L391.2,234.1C397,234.1 399.9,241.1 395.8,245.2L333.1,307.9C330.7,310.3 327.4,311.7 323.9,311.7L6.5,311.7C0.7,311.7 -2.2,304.7 1.9,300.6L64.6,237.9Z" style="fill:rgb(77,77,77);fill-rule:nonzero;"/>
                    <path d="M64.6,3.8C67.1,1.4 70.4,0 73.8,0L391.2,0C397,0 399.9,7 395.8,11.1L333.1,73.8C330.7,76.2 327.4,77.6 323.9,77.6L6.5,77.6C0.7,77.6 -2.2,70.6 1.9,66.5L64.6,3.8Z" style="fill:rgb(77,77,77);fill-rule:nonzero;"/>
                    <path d="M333.1,120.1C330.7,117.7 327.4,116.3 323.9,116.3L6.5,116.3C0.7,116.3 -2.2,123.3 1.9,127.4L64.6,190.1C67,192.5 70.3,193.9 73.8,193.9L391.2,193.9C397,193.9 399.9,186.9 395.8,182.8L333.1,120.1Z" style="fill:rgb(77,77,77);fill-rule:nonzero;"/>
                </g>
            </g>
        </g>
    </g>
</svg>
