<svg width="122" height="80" viewBox="0 0 122 80" fill="none" xmlns="http://www.w3.org/2000/svg">
<path d="M-0.0449693 37.326C2.87703 33.798 5.93603 30.587 9.10603 27.701C23.441 14.654 40.462 7.684 58.01 7.334C64.571 7.203 71.195 7.999 77.767 9.75L71.863 15.654C67.282 14.738 62.695 14.33 58.149 14.421C42.338 14.737 26.934 21.078 13.887 32.954C11.563 35.069 9.32503 37.344 7.18503 39.774C11.256 44.495 15.785 48.575 20.637 52.001C23.625 54.112 26.734 55.974 29.933 57.587L24.671 62.849C21.889 61.345 19.177 59.665 16.551 57.81C10.408 53.472 4.73803 48.181 -0.228969 41.96C-1.33797 40.563 -1.22797 38.59 -0.0449693 37.326ZM95.03 0L100.923 5.893L27.119 79.699L21.225 73.804L95.03 0ZM96.72 17.609C101.143 20.136 105.487 23.137 109.714 26.623C113.591 29.819 117.349 33.396 120.954 37.358C122.117 38.635 122.174 40.529 121.18 41.865C117.049 47.699 112.304 52.681 107.111 56.828C94.119 67.199 78.338 72.305 62.352 72.377C56.238 72.404 52.554 69.236 46.527 67.801L50.072 64.258C54.137 64.963 58.239 65.307 62.324 65.289C76.745 65.225 90.977 60.621 102.69 51.269C106.688 48.078 110.396 44.33 113.718 40.015C110.931 37.11 108.091 34.472 105.21 32.097C100.755 28.424 96.168 25.338 91.503 22.824L96.72 17.609ZM60.44 18.143C63.104 18.143 65.656 18.624 68.016 19.502L62.327 25.191C61.708 25.112 61.079 25.072 60.441 25.072C56.36 25.072 52.666 26.726 49.992 29.4C47.318 32.074 45.664 35.769 45.664 39.85C45.664 40.489 45.704 41.118 45.783 41.735L40.094 47.426C39.215 45.067 38.735 42.514 38.735 39.85C38.735 33.855 41.165 28.43 45.093 24.501C49.02 20.572 54.446 18.143 60.44 18.143ZM81.113 33.216C81.783 35.306 82.145 37.536 82.145 39.85C82.145 45.844 79.715 51.27 75.788 55.198C71.859 59.126 66.433 61.555 60.44 61.555C58.127 61.555 55.898 61.194 53.807 60.522L59.721 54.608C59.959 54.62 60.199 54.626 60.44 54.626C64.521 54.626 68.215 52.974 70.889 50.3C73.563 47.626 75.217 43.931 75.217 39.851C75.217 39.61 75.211 39.371 75.199 39.131L81.113 33.216Z" fill="#9D9D9D"/>
</svg>
