<?xml version="1.0" encoding="UTF-8" standalone="no"?>
<!DOCTYPE svg PUBLIC "-//W3C//DTD SVG 1.1//EN" "http://www.w3.org/Graphics/SVG/1.1/DTD/svg11.dtd">
<svg width="100%" height="100%" viewBox="0 0 26 25" version="1.1" xmlns="http://www.w3.org/2000/svg" xmlns:xlink="http://www.w3.org/1999/xlink" xml:space="preserve" xmlns:serif="http://www.serif.com/" style="fill-rule:evenodd;clip-rule:evenodd;stroke-linejoin:round;stroke-miterlimit:2;">
    <g transform="matrix(0.0507614,0,0,0.0507614,-8.39606e-16,-0.5)">
        <g transform="matrix(1,0,0,1,33.9829,-34.1043)">
            <g>
                <path d="M307.4,174.9C288.6,174.9 273.3,190.2 273.3,209C273.3,227.8 288.6,243.1 307.4,243.1C326.2,243.1 341.5,227.8 341.5,209C341.5,190.2 326.2,174.9 307.4,174.9Z" style="fill:rgb(77,77,77);"/>
            </g>
        </g>
        <g transform="matrix(19.7,0,0,19.7,33.9829,-24.2543)">
            <path d="M22.55,21.815L22.528,21.815L22.528,22.683C22.528,23.165 22.137,23.551 21.66,23.551L0.868,23.551C0.386,23.551 -0,23.16 -0,22.683L-0,5.789C-0,5.307 0.391,4.921 0.868,4.921L1.736,4.921L1.736,4.912L2.609,4.912L21.67,4.912C22.153,4.912 22.538,5.302 22.538,5.779L22.538,20.942L22.55,20.942L22.55,21.815ZM21.665,15.459L21.665,6.216C21.665,5.977 21.472,5.784 21.233,5.784L1.31,5.784C1.071,5.784 0.878,5.977 0.878,6.216L0.878,15.647L7.954,9.358C8.117,9.211 8.365,9.211 8.528,9.358L16,15.997L18.741,12.86C18.919,12.662 19.223,12.662 19.396,12.86L21.665,15.459Z" style="fill:rgb(77,77,77);"/>
        </g>
    </g>
</svg>
