<?xml version="1.0" encoding="UTF-8" standalone="no"?>
<!DOCTYPE svg PUBLIC "-//W3C//DTD SVG 1.1//EN" "http://www.w3.org/Graphics/SVG/1.1/DTD/svg11.dtd">
<svg width="100%" height="100%" viewBox="0 0 26 25" version="1.1" xmlns="http://www.w3.org/2000/svg" xmlns:xlink="http://www.w3.org/1999/xlink" xml:space="preserve" xmlns:serif="http://www.serif.com/" style="fill-rule:evenodd;clip-rule:evenodd;stroke-linejoin:round;stroke-miterlimit:2;">
    <g transform="matrix(0.0507614,0,0,0.0507614,-8.39606e-16,-0.5)">
        <g>
            <g>
                <path d="M495.1,38.4L85.5,38.4C76.1,38.4 68.4,46 68.4,55.5L68.4,72.6L51.3,72.6C41.9,72.6 34.2,80.2 34.2,89.7L34.2,106.8L17.1,106.8C7.7,106.8 0,114.4 0,123.9L0,456.7C0,466.1 7.6,473.8 17.1,473.8L426.7,473.8C436.1,473.8 443.8,466.2 443.8,456.7L443.8,439.6L460.9,439.6C470.3,439.6 478,432 478,422.5L478,405.4L495.1,405.4C504.5,405.4 512.2,397.8 512.2,388.3L512.2,55.5C512.2,46 504.6,38.4 495.1,38.4ZM426.8,314.4L382.1,263.2C378.7,259.3 372.7,259.3 369.2,263.2L315.2,325L168,194.2C164.8,191.3 159.9,191.3 156.7,194.2L17.3,318.1L17.3,132.3C17.3,127.6 21.1,123.8 25.8,123.8L418.3,123.8C423,123.8 426.8,127.6 426.8,132.3L426.8,314.4ZM452.5,422.4L444,422.4L444,123.7C444,114.3 436.4,106.6 426.9,106.6L51.4,106.6L51.4,98.1C51.4,93.4 55.2,89.6 59.9,89.6L452.4,89.6C457.1,89.6 460.9,93.4 460.9,98.1L461,413.9C461,418.6 457.2,422.4 452.5,422.4ZM486.6,388.2L478.1,388.2L478.1,89.6C478.1,80.2 470.5,72.5 461,72.5L85.5,72.5L85.5,64C85.5,59.3 89.3,55.5 94,55.5L486.5,55.5C491.2,55.5 495,59.3 495,64L495,379.7L495.1,379.7C495.1,384.4 491.3,388.2 486.6,388.2Z" style="fill:rgb(77,77,77);fill-rule:nonzero;"/>
                <path d="M307.4,174.9C288.6,174.9 273.3,190.2 273.3,209C273.3,227.8 288.6,243.1 307.4,243.1C326.2,243.1 341.5,227.8 341.5,209C341.5,190.2 326.2,174.9 307.4,174.9Z" style="fill:rgb(77,77,77);fill-rule:nonzero;"/>
            </g>
        </g>
    </g>
</svg>
