<?xml version="1.0" encoding="UTF-8" standalone="no"?>
<!DOCTYPE svg PUBLIC "-//W3C//DTD SVG 1.1//EN" "http://www.w3.org/Graphics/SVG/1.1/DTD/svg11.dtd">
<svg width="100%" height="100%" viewBox="0 0 25 26" version="1.1" xmlns="http://www.w3.org/2000/svg" xmlns:xlink="http://www.w3.org/1999/xlink" xml:space="preserve" xmlns:serif="http://www.serif.com/" style="fill-rule:evenodd;clip-rule:evenodd;stroke-linejoin:round;stroke-miterlimit:2;">
    <g transform="matrix(1,0,0,1,0.457557,0.296067)">
        <path d="M1.626,1.169C1.558,1.169 1.499,1.179 1.45,1.2C1.398,1.222 1.348,1.256 1.3,1.304L1.298,1.306C1.252,1.353 1.218,1.403 1.196,1.456C1.174,1.511 1.163,1.578 1.163,1.657L1.163,23.9C1.163,23.98 1.174,24.047 1.197,24.102C1.218,24.155 1.252,24.205 1.298,24.252L1.301,24.254C1.348,24.302 1.398,24.337 1.45,24.358C1.5,24.379 1.558,24.39 1.626,24.39L20.4,24.39C20.479,24.39 20.546,24.378 20.601,24.356C20.654,24.335 20.703,24.301 20.75,24.254L20.752,24.252C20.798,24.205 20.832,24.155 20.854,24.102C20.875,24.047 20.887,23.98 20.887,23.9L20.887,1.657C20.887,1.578 20.875,1.511 20.854,1.456C20.832,1.403 20.798,1.353 20.752,1.306L20.75,1.304C20.703,1.257 20.654,1.223 20.601,1.202C20.546,1.18 20.479,1.169 20.4,1.169L1.626,1.169L1.626,1.169ZM8.575,9.041L8.575,10.406C7.89,10.582 7.922,12.467 8.684,12.467C8.918,12.462 10.005,14.049 10.165,14.313C10.475,14.827 10.165,15.015 10.165,15.365C6.834,16.121 5.873,15.642 5.873,19.029L17.514,19.029C17.514,15.642 16.553,16.121 13.222,15.365C13.222,14.949 12.947,14.769 13.222,14.313C13.532,13.8 14.101,13.082 14.685,12.466C15.488,12.481 15.508,10.584 14.812,10.406L14.812,9.041C14.812,5.751 8.575,5.751 8.575,9.041ZM1.005,0.122C1.2,0.041 1.406,0 1.626,0L20.4,0C20.624,0 20.835,0.04 21.032,0.12C21.232,0.201 21.41,0.321 21.569,0.48L21.572,0.482C21.731,0.642 21.85,0.821 21.93,1.022C22.01,1.221 22.049,1.432 22.049,1.657L22.049,4.049L23.504,4.049C23.612,4.049 23.713,4.072 23.811,4.118C23.921,4.17 24.007,4.241 24.075,4.332L24.073,4.334C24.126,4.404 24.165,4.478 24.19,4.559L24.188,4.559C24.214,4.64 24.227,4.72 24.227,4.799L24.227,8.088C24.227,8.162 24.214,8.236 24.186,8.308C24.176,8.337 24.163,8.365 24.148,8.393C24.107,8.468 24.05,8.537 23.977,8.594C23.94,8.624 23.9,8.65 23.858,8.672L23.858,8.671L23.856,8.672C23.763,8.718 23.669,8.742 23.573,8.742L22.049,8.742L22.049,10.431L23.504,10.431C23.613,10.431 23.715,10.454 23.813,10.5L23.813,10.501C23.922,10.553 24.007,10.624 24.075,10.714L24.073,10.716C24.119,10.778 24.155,10.841 24.18,10.907C24.211,10.992 24.227,11.077 24.227,11.161L24.227,14.47C24.227,14.569 24.204,14.664 24.157,14.757C24.124,14.823 24.083,14.882 24.032,14.932L24.031,14.931C23.976,14.986 23.918,15.029 23.856,15.059L23.855,15.058C23.762,15.104 23.668,15.127 23.572,15.127L22.049,15.127L22.049,16.816L23.504,16.816C23.591,16.816 23.674,16.831 23.756,16.86C23.862,16.897 23.948,16.952 24.02,17.024L24.019,17.024C24.094,17.098 24.148,17.186 24.183,17.288L24.183,17.288L24.183,17.29C24.212,17.373 24.227,17.459 24.227,17.543L24.227,20.827C24.227,20.886 24.219,20.945 24.203,21.006C24.199,21.022 24.194,21.038 24.189,21.055C24.156,21.154 24.104,21.24 24.032,21.311C23.979,21.365 23.921,21.407 23.858,21.439C23.766,21.486 23.671,21.509 23.572,21.509L22.049,21.509L22.049,23.9C22.049,24.126 22.01,24.337 21.93,24.536C21.849,24.736 21.73,24.915 21.572,25.075L21.571,25.076L21.57,25.077L21.569,25.078C21.41,25.237 21.231,25.357 21.032,25.438C20.834,25.518 20.624,25.558 20.399,25.558L1.626,25.558C1.406,25.558 1.2,25.517 1.005,25.435C0.813,25.355 0.639,25.236 0.481,25.078L0.48,25.077L0.479,25.077L0.478,25.075C0.319,24.916 0.2,24.736 0.12,24.536C0.04,24.337 0,24.126 0,23.9L0,1.657C0,1.432 0.04,1.221 0.119,1.022C0.2,0.822 0.319,0.642 0.478,0.483L0.478,0.483L0.479,0.482L0.48,0.48C0.638,0.322 0.812,0.203 1.005,0.122Z" style="fill:rgb(77,77,77);fill-opacity:0.95;fill-rule:nonzero;"/>
    </g>
</svg>
