<svg width="467" height="513" viewBox="0 0 467 513" fill="none" xmlns="http://www.w3.org/2000/svg">
<g clip-path="url(#clip0_2890_5013)">
<path d="M131.07 372.11C131.44 373.11 131.64 374.19 131.64 375.31C131.64 376.44 131.44 377.52 131.07 378.52V454.43C131.07 465.17 135.48 474.96 142.57 482.05C149.66 489.14 159.44 493.54 170.19 493.54H409.21C419.96 493.54 429.74 489.14 436.83 482.05C443.92 474.96 448.32 465.17 448.32 454.43V152.42C448.32 141.87 444.11 132.27 437.3 125.24L436.83 124.81C429.74 117.72 419.96 113.31 409.21 113.31H170.19C159.44 113.31 149.66 117.72 142.57 124.81C135.48 131.9 131.07 141.68 131.07 152.42V372.11V372.11ZM112.4 384.65H57.23C41.41 384.65 27.13 378.07 16.78 367.54C6.41 356.97 0 342.4 0 326.52V57.79C0 41.93 6.5 27.49 16.97 17.01L17.01 16.97C27.51 6.49 41.94 0 57.79 0H301.42C317.29 0 331.72 6.51 342.19 16.98L342.22 17.01C352.7 27.49 359.21 41.94 359.21 57.79V94.64H409.21C425.11 94.64 439.57 101.14 450.03 111.6L450.57 112.18C460.72 122.62 467 136.84 467 152.42V454.43C467 470.33 460.5 484.79 450.04 495.25C439.57 505.72 425.11 512.22 409.21 512.22H170.19C154.29 512.22 139.84 505.72 129.37 495.25C118.9 484.79 112.4 470.33 112.4 454.43V384.65V384.65ZM340.54 94.64V57.79C340.54 47.05 336.13 37.26 329.04 30.16C321.95 23.08 312.18 18.68 301.42 18.68H57.79C47.01 18.68 37.23 23.06 30.17 30.13L30.13 30.17C23.07 37.23 18.68 47.01 18.68 57.79V326.52C18.68 337.38 23.02 347.31 30.06 354.49C37.01 361.56 46.6 365.98 57.23 365.98H112.4V152.42C112.4 136.52 118.9 122.07 129.37 111.6C139.84 101.13 154.29 94.64 170.19 94.64H340.54V94.64Z" fill="url(#paint0_linear_2890_5013)"/>
</g>
<defs>
<linearGradient id="paint0_linear_2890_5013" x1="0" y1="0" x2="467" y2="0" gradientUnits="userSpaceOnUse">
<stop stop-color="#419CFD"/>
<stop offset="1" stop-color="#33B275"/>
</linearGradient>
<clipPath id="clip0_2890_5013">
<rect width="467" height="512.22" fill="white"/>
</clipPath>
</defs>
</svg>
