<?xml version="1.0" encoding="UTF-8" standalone="no"?>
<!DOCTYPE svg PUBLIC "-//W3C//DTD SVG 1.1//EN" "http://www.w3.org/Graphics/SVG/1.1/DTD/svg11.dtd">
<svg width="100%" height="100%" viewBox="0 0 644 301" version="1.1" xmlns="http://www.w3.org/2000/svg" xmlns:xlink="http://www.w3.org/1999/xlink" xml:space="preserve" xmlns:serif="http://www.serif.com/" style="fill-rule:evenodd;clip-rule:evenodd;stroke-linejoin:round;stroke-miterlimit:2;">
    <g id="Artboard1" transform="matrix(0.474542,0,0,0.27641,173.203,83.4653)">
        <rect x="-364.99" y="-301.962" width="1356.77" height="1087.19" style="fill:none;"/>
        <g id="Logo" transform="matrix(2.36137,0,0,3.28203,-1429.97,-1370.01)">
            <g>
                <g transform="matrix(0.388681,-0.276614,0.22394,0.480105,316.927,230.755)">
                    <path d="M407.921,432.815L537.763,657.709L278.078,657.709L407.921,432.815Z" style="fill:url(#_Linear1);"/>
                </g>
                <g transform="matrix(-0.38756,0.279003,-0.225874,-0.47872,808.807,749.383)">
                    <path d="M407.921,432.815L537.763,657.709L278.078,657.709L407.921,432.815Z" style="fill:url(#_Linear2);"/>
                </g>
                <g transform="matrix(0.854857,0,0,1.05593,157.505,-143.368)">
                    <path d="M630.778,628.452C630.778,635.549 629.672,641.831 627.458,647.3C625.244,652.769 622.022,657.375 617.79,661.118C613.558,664.862 608.366,667.71 602.214,669.663C596.061,671.616 588.819,672.593 580.485,672.593L569.938,672.593L569.938,712.925C569.938,713.576 569.727,714.162 569.304,714.683C568.88,715.204 568.181,715.627 567.204,715.952C566.227,716.278 564.925,716.538 563.298,716.734C561.67,716.929 559.587,717.026 557.048,717.026C554.574,717.026 552.507,716.929 550.847,716.734C549.186,716.538 547.868,716.278 546.892,715.952C545.915,715.627 545.231,715.204 544.841,714.683C544.45,714.162 544.255,713.576 544.255,712.925L544.255,599.253C544.255,596.193 545.052,593.898 546.647,592.368C548.242,590.838 550.342,590.073 552.946,590.073L582.731,590.073C585.726,590.073 588.575,590.187 591.276,590.415C593.978,590.643 597.217,591.131 600.993,591.88C604.769,592.629 608.594,594.012 612.468,596.03C616.341,598.049 619.645,600.604 622.38,603.696C625.114,606.789 627.198,610.402 628.63,614.536C630.062,618.67 630.778,623.309 630.778,628.452ZM603.923,630.308C603.923,625.881 603.142,622.235 601.579,619.37C600.017,616.506 598.096,614.39 595.817,613.023C593.539,611.655 591.146,610.793 588.64,610.435C586.133,610.077 583.545,609.898 580.876,609.898L569.938,609.898L569.938,652.769L581.462,652.769C585.563,652.769 588.998,652.215 591.765,651.109C594.532,650.002 596.794,648.456 598.552,646.47C600.31,644.484 601.644,642.108 602.556,639.341C603.467,636.574 603.923,633.563 603.923,630.308Z" style="fill:url(#_Linear3);fill-rule:nonzero;"/>
                </g>
                <g transform="matrix(0.854857,0,0,1.05593,157.505,-143.368)">
                    <path d="M734.099,668.687C734.099,676.109 733.122,682.879 731.169,688.999C729.216,695.119 726.254,700.392 722.282,704.819C718.311,709.247 713.33,712.665 707.341,715.073C701.351,717.482 694.352,718.687 686.345,718.687C678.597,718.687 671.859,717.612 666.13,715.464C660.401,713.316 655.648,710.191 651.872,706.089C648.096,701.987 645.297,696.942 643.474,690.952C641.651,684.963 640.739,678.127 640.739,670.444C640.739,663.023 641.732,656.235 643.718,650.083C645.703,643.931 648.682,638.657 652.653,634.263C656.625,629.868 661.589,626.467 667.546,624.058C673.503,621.649 680.485,620.444 688.493,620.444C696.306,620.444 703.076,621.502 708.806,623.618C714.535,625.734 719.271,628.843 723.015,632.944C726.758,637.046 729.541,642.092 731.364,648.081C733.187,654.071 734.099,660.939 734.099,668.687ZM708.806,669.663C708.806,665.366 708.464,661.411 707.78,657.798C707.097,654.185 705.941,651.043 704.313,648.374C702.686,645.705 700.521,643.622 697.819,642.124C695.117,640.627 691.716,639.878 687.614,639.878C683.968,639.878 680.778,640.545 678.044,641.88C675.31,643.215 673.063,645.168 671.306,647.739C669.548,650.311 668.229,653.403 667.351,657.017C666.472,660.63 666.032,664.748 666.032,669.37C666.032,673.667 666.39,677.622 667.106,681.235C667.823,684.849 668.978,687.99 670.573,690.659C672.168,693.329 674.333,695.396 677.067,696.86C679.802,698.325 683.187,699.058 687.224,699.058C690.935,699.058 694.157,698.39 696.892,697.056C699.626,695.721 701.872,693.784 703.63,691.245C705.388,688.706 706.69,685.63 707.536,682.017C708.382,678.403 708.806,674.286 708.806,669.663Z" style="fill:url(#_Linear4);fill-rule:nonzero;"/>
                </g>
                <g transform="matrix(0.854857,0,0,1.05593,157.505,-143.368)">
                    <path d="M809.489,634.116C809.489,636.46 809.424,638.381 809.294,639.878C809.164,641.375 808.968,642.547 808.708,643.394C808.448,644.24 808.106,644.826 807.683,645.151C807.259,645.477 806.722,645.64 806.071,645.64C805.55,645.64 804.964,645.526 804.313,645.298C803.662,645.07 802.93,644.826 802.116,644.566C801.302,644.305 800.407,644.061 799.431,643.833C798.454,643.605 797.38,643.491 796.208,643.491C794.841,643.491 793.474,643.768 792.106,644.321C790.739,644.875 789.323,645.737 787.858,646.909C786.394,648.081 784.864,649.644 783.269,651.597C781.673,653.55 779.964,655.959 778.142,658.823L778.142,713.12C778.142,713.771 777.946,714.341 777.556,714.829C777.165,715.318 776.498,715.724 775.554,716.05C774.61,716.375 773.356,716.62 771.794,716.782C770.231,716.945 768.246,717.026 765.837,717.026C763.428,717.026 761.442,716.945 759.88,716.782C758.317,716.62 757.064,716.375 756.12,716.05C755.176,715.724 754.509,715.318 754.118,714.829C753.727,714.341 753.532,713.771 753.532,713.12L753.532,626.011C753.532,625.36 753.695,624.79 754.02,624.302C754.346,623.814 754.932,623.407 755.778,623.081C756.625,622.756 757.715,622.512 759.05,622.349C760.384,622.186 762.061,622.105 764.079,622.105C766.162,622.105 767.888,622.186 769.255,622.349C770.622,622.512 771.68,622.756 772.429,623.081C773.177,623.407 773.714,623.814 774.04,624.302C774.366,624.79 774.528,625.36 774.528,626.011L774.528,636.851C776.807,633.595 778.955,630.91 780.974,628.794C782.992,626.678 784.912,625.002 786.735,623.765C788.558,622.528 790.381,621.665 792.204,621.177C794.027,620.689 795.85,620.444 797.673,620.444C798.519,620.444 799.431,620.493 800.407,620.591C801.384,620.689 802.393,620.851 803.435,621.079C804.476,621.307 805.388,621.568 806.169,621.86C806.95,622.153 807.52,622.463 807.878,622.788C808.236,623.114 808.496,623.472 808.659,623.862C808.822,624.253 808.968,624.79 809.099,625.474C809.229,626.157 809.326,627.183 809.392,628.55C809.457,629.917 809.489,631.773 809.489,634.116Z" style="fill:url(#_Linear5);fill-rule:nonzero;"/>
                </g>
                <g transform="matrix(0.854857,0,0,1.05593,157.505,-143.368)">
                    <path d="M876.188,704.526C876.188,707.391 876.009,709.588 875.651,711.118C875.293,712.648 874.821,713.722 874.235,714.341C873.649,714.959 872.787,715.513 871.647,716.001C870.508,716.489 869.173,716.913 867.644,717.271C866.114,717.629 864.453,717.905 862.663,718.101C860.873,718.296 859.066,718.394 857.243,718.394C852.36,718.394 848.129,717.775 844.548,716.538C840.967,715.301 838.005,713.397 835.661,710.825C833.317,708.254 831.592,705.015 830.485,701.109C829.379,697.202 828.825,692.58 828.825,687.241L828.825,642.612L818.376,642.612C817.139,642.612 816.195,641.847 815.544,640.318C814.893,638.788 814.567,636.232 814.567,632.651C814.567,630.763 814.649,629.168 814.811,627.866C814.974,626.564 815.218,625.539 815.544,624.79C815.869,624.041 816.276,623.504 816.765,623.179C817.253,622.853 817.823,622.691 818.474,622.691L828.825,622.691L828.825,603.257C828.825,602.606 829.004,602.02 829.362,601.499C829.72,600.978 830.371,600.539 831.315,600.181C832.259,599.823 833.529,599.562 835.124,599.4C836.719,599.237 838.688,599.155 841.032,599.155C843.441,599.155 845.443,599.237 847.038,599.4C848.633,599.562 849.886,599.823 850.798,600.181C851.709,600.539 852.36,600.978 852.751,601.499C853.142,602.02 853.337,602.606 853.337,603.257L853.337,622.691L872.282,622.691C872.933,622.691 873.503,622.853 873.991,623.179C874.479,623.504 874.886,624.041 875.212,624.79C875.537,625.539 875.782,626.564 875.944,627.866C876.107,629.168 876.188,630.763 876.188,632.651C876.188,636.232 875.863,638.788 875.212,640.318C874.561,641.847 873.617,642.612 872.38,642.612L853.337,642.612L853.337,683.53C853.337,688.283 854.086,691.847 855.583,694.224C857.08,696.6 859.75,697.788 863.591,697.788C864.893,697.788 866.065,697.674 867.106,697.446C868.148,697.219 869.076,696.958 869.89,696.665C870.703,696.372 871.387,696.112 871.94,695.884C872.494,695.656 872.998,695.542 873.454,695.542C873.845,695.542 874.219,695.656 874.577,695.884C874.935,696.112 875.212,696.568 875.407,697.251C875.602,697.935 875.782,698.862 875.944,700.034C876.107,701.206 876.188,702.704 876.188,704.526Z" style="fill:url(#_Linear6);fill-rule:nonzero;"/>
                </g>
                <g transform="matrix(0.854857,0,0,1.05593,157.505,-143.368)">
                    <path d="M966.227,713.413C966.227,714.325 965.902,715.041 965.251,715.562C964.6,716.082 963.575,716.457 962.175,716.685C960.775,716.913 958.708,717.026 955.974,717.026C953.044,717.026 950.912,716.913 949.577,716.685C948.242,716.457 947.298,716.082 946.745,715.562C946.192,715.041 945.915,714.325 945.915,713.413L945.915,706.48C942.334,710.321 938.249,713.316 933.659,715.464C929.069,717.612 923.975,718.687 918.376,718.687C913.754,718.687 909.505,718.084 905.632,716.88C901.758,715.676 898.405,713.885 895.573,711.509C892.741,709.133 890.544,706.187 888.981,702.671C887.419,699.155 886.638,695.054 886.638,690.366C886.638,685.288 887.63,680.877 889.616,677.134C891.602,673.39 894.564,670.298 898.503,667.857C902.442,665.415 907.341,663.609 913.2,662.437C919.06,661.265 925.863,660.679 933.61,660.679L942.106,660.679L942.106,655.405C942.106,652.671 941.83,650.278 941.276,648.228C940.723,646.177 939.811,644.468 938.542,643.101C937.272,641.734 935.58,640.724 933.464,640.073C931.348,639.422 928.727,639.097 925.602,639.097C921.501,639.097 917.839,639.553 914.616,640.464C911.394,641.375 908.545,642.385 906.071,643.491C903.597,644.598 901.53,645.607 899.87,646.519C898.21,647.43 896.859,647.886 895.817,647.886C895.101,647.886 894.466,647.658 893.913,647.202C893.36,646.747 892.904,646.095 892.546,645.249C892.188,644.403 891.911,643.361 891.716,642.124C891.52,640.887 891.423,639.52 891.423,638.023C891.423,636.004 891.586,634.409 891.911,633.237C892.237,632.066 892.855,631.008 893.767,630.064C894.678,629.12 896.273,628.078 898.552,626.939C900.83,625.799 903.5,624.741 906.56,623.765C909.619,622.788 912.956,621.991 916.569,621.372C920.183,620.754 923.91,620.444 927.751,620.444C934.587,620.444 940.43,621.112 945.28,622.446C950.13,623.781 954.118,625.832 957.243,628.599C960.368,631.366 962.647,634.93 964.079,639.292C965.511,643.654 966.227,648.83 966.227,654.819L966.227,713.413ZM942.106,676.109L932.731,676.109C928.76,676.109 925.375,676.401 922.575,676.987C919.776,677.573 917.497,678.452 915.739,679.624C913.981,680.796 912.696,682.212 911.882,683.872C911.068,685.532 910.661,687.437 910.661,689.585C910.661,693.231 911.817,696.095 914.128,698.179C916.439,700.262 919.645,701.304 923.747,701.304C927.198,701.304 930.371,700.425 933.269,698.667C936.166,696.909 939.112,694.338 942.106,690.952L942.106,676.109Z" style="fill:url(#_Linear7);fill-rule:nonzero;"/>
                </g>
                <g transform="matrix(0.854857,0,0,1.05593,157.505,-143.368)">
                    <path d="M1015.35,713.12C1015.35,713.771 1015.15,714.341 1014.76,714.829C1014.37,715.318 1013.71,715.724 1012.76,716.05C1011.82,716.375 1010.56,716.62 1009,716.782C1007.44,716.945 1005.45,717.026 1003.04,717.026C1000.63,717.026 998.649,716.945 997.087,716.782C995.524,716.62 994.271,716.375 993.327,716.05C992.383,715.724 991.716,715.318 991.325,714.829C990.935,714.341 990.739,713.771 990.739,713.12L990.739,584.702C990.739,584.051 990.935,583.465 991.325,582.944C991.716,582.424 992.383,581.984 993.327,581.626C994.271,581.268 995.524,580.991 997.087,580.796C998.649,580.601 1000.63,580.503 1003.04,580.503C1005.45,580.503 1007.44,580.601 1009,580.796C1010.56,580.991 1011.82,581.268 1012.76,581.626C1013.71,581.984 1014.37,582.424 1014.76,582.944C1015.15,583.465 1015.35,584.051 1015.35,584.702L1015.35,713.12Z" style="fill:url(#_Linear8);fill-rule:nonzero;"/>
                </g>
            </g>
        </g>
    </g>
    <defs>
        <linearGradient id="_Linear1" x1="0" y1="0" x2="1" y2="0" gradientUnits="userSpaceOnUse" gradientTransform="matrix(1168.67,632.308,-632.31,1168.67,27.6421,554.44)"><stop offset="0" style="stop-color:rgb(65,156,253);stop-opacity:1"/><stop offset="0.14" style="stop-color:rgb(0,169,254);stop-opacity:1"/><stop offset="0.29" style="stop-color:rgb(0,180,247);stop-opacity:1"/><stop offset="0.43" style="stop-color:rgb(0,189,233);stop-opacity:1"/><stop offset="0.57" style="stop-color:rgb(0,197,214);stop-opacity:1"/><stop offset="0.71" style="stop-color:rgb(0,202,193);stop-opacity:1"/><stop offset="0.86" style="stop-color:rgb(56,206,172);stop-opacity:1"/><stop offset="1" style="stop-color:rgb(110,209,153);stop-opacity:1"/></linearGradient>
        <linearGradient id="_Linear2" x1="0" y1="0" x2="1" y2="0" gradientUnits="userSpaceOnUse" gradientTransform="matrix(-1165.5,-638.125,638.126,-1165.5,451.191,806.251)"><stop offset="0" style="stop-color:rgb(65,156,253);stop-opacity:1"/><stop offset="0.14" style="stop-color:rgb(0,169,254);stop-opacity:1"/><stop offset="0.29" style="stop-color:rgb(0,180,247);stop-opacity:1"/><stop offset="0.43" style="stop-color:rgb(0,189,233);stop-opacity:1"/><stop offset="0.57" style="stop-color:rgb(0,197,214);stop-opacity:1"/><stop offset="0.71" style="stop-color:rgb(0,202,193);stop-opacity:1"/><stop offset="0.86" style="stop-color:rgb(56,206,172);stop-opacity:1"/><stop offset="1" style="stop-color:rgb(110,209,153);stop-opacity:1"/></linearGradient>
        <linearGradient id="_Linear3" x1="0" y1="0" x2="1" y2="0" gradientUnits="userSpaceOnUse" gradientTransform="matrix(697.002,-18.652,18.6519,697.005,344.3,599.155)"><stop offset="0" style="stop-color:rgb(65,156,253);stop-opacity:1"/><stop offset="0.14" style="stop-color:rgb(0,169,254);stop-opacity:1"/><stop offset="0.29" style="stop-color:rgb(0,180,247);stop-opacity:1"/><stop offset="0.43" style="stop-color:rgb(0,189,233);stop-opacity:1"/><stop offset="0.57" style="stop-color:rgb(0,197,214);stop-opacity:1"/><stop offset="0.71" style="stop-color:rgb(0,202,193);stop-opacity:1"/><stop offset="0.86" style="stop-color:rgb(56,206,172);stop-opacity:1"/><stop offset="1" style="stop-color:rgb(110,209,153);stop-opacity:1"/></linearGradient>
        <linearGradient id="_Linear4" x1="0" y1="0" x2="1" y2="0" gradientUnits="userSpaceOnUse" gradientTransform="matrix(697.002,-18.652,18.6519,697.005,344.3,599.155)"><stop offset="0" style="stop-color:rgb(65,156,253);stop-opacity:1"/><stop offset="0.14" style="stop-color:rgb(0,169,254);stop-opacity:1"/><stop offset="0.29" style="stop-color:rgb(0,180,247);stop-opacity:1"/><stop offset="0.43" style="stop-color:rgb(0,189,233);stop-opacity:1"/><stop offset="0.57" style="stop-color:rgb(0,197,214);stop-opacity:1"/><stop offset="0.71" style="stop-color:rgb(0,202,193);stop-opacity:1"/><stop offset="0.86" style="stop-color:rgb(56,206,172);stop-opacity:1"/><stop offset="1" style="stop-color:rgb(110,209,153);stop-opacity:1"/></linearGradient>
        <linearGradient id="_Linear5" x1="0" y1="0" x2="1" y2="0" gradientUnits="userSpaceOnUse" gradientTransform="matrix(697.002,-18.652,18.6519,697.005,344.3,599.155)"><stop offset="0" style="stop-color:rgb(65,156,253);stop-opacity:1"/><stop offset="0.14" style="stop-color:rgb(0,169,254);stop-opacity:1"/><stop offset="0.29" style="stop-color:rgb(0,180,247);stop-opacity:1"/><stop offset="0.43" style="stop-color:rgb(0,189,233);stop-opacity:1"/><stop offset="0.57" style="stop-color:rgb(0,197,214);stop-opacity:1"/><stop offset="0.71" style="stop-color:rgb(0,202,193);stop-opacity:1"/><stop offset="0.86" style="stop-color:rgb(56,206,172);stop-opacity:1"/><stop offset="1" style="stop-color:rgb(110,209,153);stop-opacity:1"/></linearGradient>
        <linearGradient id="_Linear6" x1="0" y1="0" x2="1" y2="0" gradientUnits="userSpaceOnUse" gradientTransform="matrix(697.002,-18.652,18.6519,697.005,344.3,599.155)"><stop offset="0" style="stop-color:rgb(65,156,253);stop-opacity:1"/><stop offset="0.14" style="stop-color:rgb(0,169,254);stop-opacity:1"/><stop offset="0.29" style="stop-color:rgb(0,180,247);stop-opacity:1"/><stop offset="0.43" style="stop-color:rgb(0,189,233);stop-opacity:1"/><stop offset="0.57" style="stop-color:rgb(0,197,214);stop-opacity:1"/><stop offset="0.71" style="stop-color:rgb(0,202,193);stop-opacity:1"/><stop offset="0.86" style="stop-color:rgb(56,206,172);stop-opacity:1"/><stop offset="1" style="stop-color:rgb(110,209,153);stop-opacity:1"/></linearGradient>
        <linearGradient id="_Linear7" x1="0" y1="0" x2="1" y2="0" gradientUnits="userSpaceOnUse" gradientTransform="matrix(697.002,-18.652,18.6519,697.005,344.3,599.155)"><stop offset="0" style="stop-color:rgb(65,156,253);stop-opacity:1"/><stop offset="0.14" style="stop-color:rgb(0,169,254);stop-opacity:1"/><stop offset="0.29" style="stop-color:rgb(0,180,247);stop-opacity:1"/><stop offset="0.43" style="stop-color:rgb(0,189,233);stop-opacity:1"/><stop offset="0.57" style="stop-color:rgb(0,197,214);stop-opacity:1"/><stop offset="0.71" style="stop-color:rgb(0,202,193);stop-opacity:1"/><stop offset="0.86" style="stop-color:rgb(56,206,172);stop-opacity:1"/><stop offset="1" style="stop-color:rgb(110,209,153);stop-opacity:1"/></linearGradient>
        <linearGradient id="_Linear8" x1="0" y1="0" x2="1" y2="0" gradientUnits="userSpaceOnUse" gradientTransform="matrix(697.002,-18.652,18.6519,697.005,344.3,599.155)"><stop offset="0" style="stop-color:rgb(65,156,253);stop-opacity:1"/><stop offset="0.14" style="stop-color:rgb(0,169,254);stop-opacity:1"/><stop offset="0.29" style="stop-color:rgb(0,180,247);stop-opacity:1"/><stop offset="0.43" style="stop-color:rgb(0,189,233);stop-opacity:1"/><stop offset="0.57" style="stop-color:rgb(0,197,214);stop-opacity:1"/><stop offset="0.71" style="stop-color:rgb(0,202,193);stop-opacity:1"/><stop offset="0.86" style="stop-color:rgb(56,206,172);stop-opacity:1"/><stop offset="1" style="stop-color:rgb(110,209,153);stop-opacity:1"/></linearGradient>
    </defs>
</svg>
