<?xml version="1.0" encoding="UTF-8" standalone="no"?>
<!DOCTYPE svg PUBLIC "-//W3C//DTD SVG 1.1//EN" "http://www.w3.org/Graphics/SVG/1.1/DTD/svg11.dtd">
<svg width="100%" height="100%" viewBox="0 0 1000 1000" version="1.1" xmlns="http://www.w3.org/2000/svg" xmlns:xlink="http://www.w3.org/1999/xlink" xml:space="preserve" xmlns:serif="http://www.serif.com/" style="fill-rule:evenodd;clip-rule:evenodd;stroke-linejoin:round;stroke-miterlimit:2;">
    <g>
        <path d="M843,305.4L157,305.4C124.8,305.4 98.6,331.9 98.6,364.4L98.6,635.6C98.6,668.1 124.8,694.6 157,694.6L843,694.6C875.2,694.6 901.4,668.1 901.4,635.6L901.4,364.4C901.4,331.9 875.2,305.4 843,305.4ZM867.5,635.6C867.5,649.2 856.5,660.2 843,660.2L157,660.2C143.5,660.2 132.5,649.2 132.5,635.6L132.5,364.4C132.5,350.8 143.5,339.8 157,339.8L843,339.8C856.5,339.8 867.5,350.8 867.5,364.4L867.5,635.6ZM977.8,339.8L990,339.8L990,315.1L965.5,315.1C938.4,315.1 916.5,293 916.5,265.8L916.5,241.2L83.5,241.2L83.5,265.8C83.5,293 61.6,315.1 34.5,315.1L10,315.1L10,339.8L22.3,339.8C29.1,339.8 34.5,345.3 34.5,352.1C34.5,358.9 29,364.4 22.3,364.4L10,364.4L10,389L22.3,389C29.1,389 34.5,394.5 34.5,401.3C34.5,408.1 29,413.6 22.3,413.6L10,413.6L10,438.2L22.3,438.2C29.1,438.2 34.5,443.7 34.5,450.5C34.5,457.3 29,462.8 22.3,462.8L10,462.8L10,487.4L22.3,487.4C29.1,487.4 34.5,492.9 34.5,499.7C34.5,506.5 29,512 22.3,512L10,512L10,537L22.3,537C29.1,537 34.5,542.5 34.5,549.3C34.5,556.1 29,561.6 22.3,561.6L10,561.6L10,586.3L22.3,586.3C29.1,586.3 34.5,591.8 34.5,598.6C34.5,605.4 29,610.9 22.3,610.9L10,610.9L10,635.6L22.3,635.6C29.1,635.6 34.5,641.1 34.5,647.9C34.5,654.7 29,660.2 22.3,660.2L10,660.2L10,684.9L34.5,684.9C61.6,684.9 83.5,707 83.5,734.2L83.5,758.8L916.5,758.8L916.5,734.2C916.5,707 938.4,684.9 965.5,684.9L990,684.9L990,660.2L977.8,660.2C971,660.2 965.5,654.7 965.5,647.9C965.5,641.1 971,635.6 977.8,635.6L990,635.6L990,610.9L977.8,610.9C971,610.9 965.5,605.4 965.5,598.6C965.5,591.8 971,586.3 977.8,586.3L990,586.3L990,561.6L977.8,561.6C971,561.6 965.5,556.1 965.5,549.3C965.5,542.5 971,537 977.8,537L990,537L990,512.4L977.8,512.4C971,512.4 965.5,506.9 965.5,500.1C965.5,493.3 971,487.8 977.8,487.8L990,487.8L990,463L977.8,463C971,463 965.5,457.5 965.5,450.7C965.5,443.9 971,438.4 977.8,438.4L990,438.4L990,413.8L977.8,413.8C971,413.8 965.5,408.3 965.5,401.5C965.5,394.7 971,389.2 977.8,389.2L990,389.2L990,364.6L977.8,364.6C971,364.6 965.5,359.1 965.5,352.3C965.5,345.3 971,339.8 977.8,339.8ZM938.6,426.1C934.2,433.2 931.6,441.7 931.6,450.7C931.6,459.7 934.1,468.2 938.6,475.4C934.2,482.5 931.6,491 931.6,500C931.6,509 934.1,517.5 938.6,524.6C934.2,531.8 931.6,540.2 931.6,549.3C931.6,558.3 934.1,566.8 938.6,573.9C934.2,581.1 931.6,589.5 931.6,598.6C931.6,607.6 934.1,616.1 938.6,623.2C934.2,630.4 931.6,638.8 931.6,647.9C931.6,651.1 931.9,654.3 932.6,657.4C906,669 886.6,694.3 883.2,724.5L116.8,724.5C113.4,694.4 94,669.1 67.4,657.4C68,654.3 68.4,651.1 68.4,647.9C68.4,638.9 65.8,630.4 61.4,623.2C65.8,616 68.4,607.6 68.4,598.6C68.4,589.6 65.8,581.1 61.4,573.9C65.8,566.8 68.4,558.3 68.4,549.3C68.4,540.3 65.8,531.8 61.4,524.6C65.8,517.5 68.4,509 68.4,500C68.4,491 65.8,482.5 61.4,475.4C65.8,468.2 68.4,459.8 68.4,450.7C68.4,441.7 65.8,433.2 61.4,426.1C65.8,418.9 68.4,410.5 68.4,401.4C68.4,392.4 65.8,383.9 61.4,376.8C65.8,369.6 68.4,361.2 68.4,352.1C68.4,348.8 68.1,345.7 67.4,342.6C94,331 113.4,305.7 116.8,275.5L883.2,275.5C886.6,305.6 906.1,330.9 932.6,342.6C931.9,345.7 931.6,348.9 931.6,352.1C931.6,361.1 934.1,369.6 938.6,376.8C934.2,383.9 931.6,392.4 931.6,401.4C931.6,410.4 934.2,418.9 938.6,426.1Z" style="fill:rgb(77,77,77);fill-rule:nonzero;"/>
        <rect x="161.355" y="387.023" width="552.972" height="34.453" style="fill:rgb(77,77,77);"/>
        <rect x="161.355" y="440.999" width="477.175" height="33.305" style="fill:rgb(77,77,77);"/>
        <rect x="161.355" y="578.811" width="191.214" height="40.769" style="fill:rgb(77,77,77);"/>
        <rect x="736.147" y="578.811" width="94.746" height="40.769" style="fill:rgb(77,77,77);"/>
    </g>
</svg>
