<svg width="33" height="27" viewBox="0 0 33 27" fill="none" xmlns="http://www.w3.org/2000/svg">
<rect x="8.51157" y="9.98486" width="15.7746" height="7.24027" fill="white" stroke="#4D4D4D" stroke-width="1.5"/>
<ellipse cx="16.399" cy="13.6049" rx="1.40646" ry="1.4062" fill="white"/>
<ellipse cx="16.399" cy="13.6049" rx="1.40646" ry="1.4062" fill="#4D4D4D"/>
<path fill-rule="evenodd" clip-rule="evenodd" d="M31.6349 5.45354C32.3018 5.0687 32.3018 4.10608 31.6349 3.72124L26.726 0.888757C26.0593 0.504083 25.2262 0.985221 25.2262 1.75491V3.47174H6.71222C6.15993 3.47174 5.71222 3.91946 5.71222 4.47175V4.70275C5.71222 5.25504 6.15993 5.70275 6.71222 5.70275H25.2262V7.41987C25.2262 8.18955 26.0593 8.67069 26.726 8.28602L31.6349 5.45354Z" fill="white"/>
<path fill-rule="evenodd" clip-rule="evenodd" d="M31.6349 5.45354C32.3018 5.0687 32.3018 4.10608 31.6349 3.72124L26.726 0.888757C26.0593 0.504083 25.2262 0.985221 25.2262 1.75491V3.47174H6.71222C6.15993 3.47174 5.71222 3.91946 5.71222 4.47175V4.70275C5.71222 5.25504 6.15993 5.70275 6.71222 5.70275H25.2262V7.41987C25.2262 8.18955 26.0593 8.67069 26.726 8.28602L31.6349 5.45354Z" fill="#4D4D4D"/>
<path fill-rule="evenodd" clip-rule="evenodd" d="M0.592447 21.651C-0.0745129 22.0358 -0.0745147 22.9984 0.592445 23.3833L5.50133 26.2157C6.16799 26.6004 7.00111 26.1193 7.00111 25.3496L7.00111 23.6328L25.5151 23.6328C26.0674 23.6328 26.5151 23.1851 26.5151 22.6328L26.5151 22.4018C26.5151 21.8495 26.0674 21.4018 25.5151 21.4018L7.00111 21.4018L7.00111 19.6846C7.00111 18.9149 6.16799 18.4338 5.50133 18.8185L0.592447 21.651Z" fill="white"/>
<path fill-rule="evenodd" clip-rule="evenodd" d="M0.592447 21.651C-0.0745129 22.0358 -0.0745147 22.9984 0.592445 23.3833L5.50133 26.2157C6.16799 26.6004 7.00111 26.1193 7.00111 25.3496L7.00111 23.6328L25.5151 23.6328C26.0674 23.6328 26.5151 23.1851 26.5151 22.6328L26.5151 22.4018C26.5151 21.8495 26.0674 21.4018 25.5151 21.4018L7.00111 21.4018L7.00111 19.6846C7.00111 18.9149 6.16799 18.4338 5.50133 18.8185L0.592447 21.651Z" fill="#4D4D4D"/>
</svg>
