<?xml version="1.0" encoding="UTF-8" standalone="no"?>
<!DOCTYPE svg PUBLIC "-//W3C//DTD SVG 1.1//EN" "http://www.w3.org/Graphics/SVG/1.1/DTD/svg11.dtd">
<svg width="100%" height="100%" viewBox="0 0 33 27" version="1.1" xmlns="http://www.w3.org/2000/svg" xmlns:xlink="http://www.w3.org/1999/xlink" xml:space="preserve" xmlns:serif="http://www.serif.com/" style="fill-rule:evenodd;clip-rule:evenodd;">
    <g transform="matrix(1,0,0,1,0.419888,0)">
        <rect x="8.512" y="9.985" width="15.775" height="7.24" style="fill:none;stroke:rgb(77,77,77);stroke-width:1.5px;"/>
    </g>
    <g transform="matrix(1,0,0,1,0.419888,0)">
        <ellipse cx="16.399" cy="13.605" rx="1.406" ry="1.406" style="fill:rgb(77,77,77);"/>
    </g>
    <g transform="matrix(1,0,0,1,0.419888,0)">
        <path d="M31.635,5.454C32.302,5.069 32.302,4.106 31.635,3.721L26.726,0.889C26.059,0.504 25.226,0.985 25.226,1.755L25.226,3.472L6.712,3.472C6.16,3.472 5.712,3.919 5.712,4.472L5.712,4.703C5.712,5.255 6.16,5.703 6.712,5.703L25.226,5.703L25.226,7.42C25.226,8.19 26.059,8.671 26.726,8.286L31.635,5.454Z" style="fill:white;"/>
    </g>
    <g transform="matrix(1,0,0,1,0.419888,0)">
        <path d="M31.635,5.454C32.302,5.069 32.302,4.106 31.635,3.721L26.726,0.889C26.059,0.504 25.226,0.985 25.226,1.755L25.226,3.472L6.712,3.472C6.16,3.472 5.712,3.919 5.712,4.472L5.712,4.703C5.712,5.255 6.16,5.703 6.712,5.703L25.226,5.703L25.226,7.42C25.226,8.19 26.059,8.671 26.726,8.286L31.635,5.454Z" style="fill:rgb(77,77,77);"/>
    </g>
    <g transform="matrix(1,0,0,1,0.419888,0)">
        <path d="M0.592,21.651C-0.075,22.036 -0.075,22.998 0.592,23.383L5.501,26.216C6.168,26.6 7.001,26.119 7.001,25.35L7.001,23.633L25.515,23.633C26.067,23.633 26.515,23.185 26.515,22.633L26.515,22.402C26.515,21.85 26.067,21.402 25.515,21.402L7.001,21.402L7.001,19.685C7.001,18.915 6.168,18.434 5.501,18.819L0.592,21.651Z" style="fill:white;"/>
    </g>
    <g transform="matrix(1,0,0,1,0.419888,0)">
        <path d="M0.592,21.651C-0.075,22.036 -0.075,22.998 0.592,23.383L5.501,26.216C6.168,26.6 7.001,26.119 7.001,25.35L7.001,23.633L25.515,23.633C26.067,23.633 26.515,23.185 26.515,22.633L26.515,22.402C26.515,21.85 26.067,21.402 25.515,21.402L7.001,21.402L7.001,19.685C7.001,18.915 6.168,18.434 5.501,18.819L0.592,21.651Z" style="fill:rgb(77,77,77);"/>
    </g>
</svg>
