<svg width="24" height="23" viewBox="0 0 24 23" fill="none" xmlns="http://www.w3.org/2000/svg">
<path fill-rule="evenodd" clip-rule="evenodd" d="M11.9584 1.60378L15.6724 0L17.7086 3.46254L21.6584 4.34423L21.2687 8.34006L23.9441 11.3725L21.2784 14.3776L21.6584 18.4026L17.732 19.2687L15.6724 22.7469L11.9857 21.1411L8.27169 22.7469L6.23543 19.2843L2.28567 18.4026L2.67539 14.4048L0 11.3725L2.66565 8.36731L2.28567 4.34423L6.21205 3.47811L8.27169 0L11.9584 1.60378Z" fill="#00ACED"/>
<path d="M7.38899 12.6512C6.2062 11.3802 8.02227 9.48646 9.33756 10.6854C9.80132 11.1078 10.4755 11.7247 10.9432 12.1432L14.548 7.71918C15.8029 6.42292 17.7846 8.32644 16.5453 9.63048L12.0168 15.0257C11.7692 15.287 11.4295 15.442 11.0696 15.458C10.7097 15.474 10.3577 15.3497 10.0878 15.1114C9.32002 14.3815 8.19375 13.3324 7.38899 12.6512Z" fill="white"/>
</svg>
