<svg viewBox="0 0 22 22" aria-label="Verified account" role="img" class="r-4qtqp9 r-yyyyoo r-1xvli5t r-9cviqr r-f9ja8p r-og9te1 r-bnwqim r-1plcrui r-lrvibr" data-testid="icon-verified"><g><path clip-rule="evenodd" d="M13.596 3.011L11 .5 8.404 3.011l-3.576-.506-.624 3.558-3.19 1.692L2.6 11l-1.586 3.245 3.19 1.692.624 3.558 3.576-.506L11 21.5l2.596-2.511 3.576.506.624-3.558 3.19-1.692L19.4 11l1.586-3.245-3.19-1.692-.624-3.558-3.576.506zM6 11.39l3.74 3.74 6.2-6.77L14.47 7l-4.8 5.23-2.26-2.26L6 11.39z" fill="url(#paint0_linear_8728_433881)" fill-rule="evenodd"></path><path clip-rule="evenodd" d="M13.348 3.772L11 1.5 8.651 3.772l-3.235-.458-.565 3.219-2.886 1.531L3.4 11l-1.435 2.936 2.886 1.531.565 3.219 3.235-.458L11 20.5l2.348-2.272 3.236.458.564-3.219 2.887-1.531L18.6 11l1.435-2.936-2.887-1.531-.564-3.219-3.236.458zM6 11.39l3.74 3.74 6.2-6.77L14.47 7l-4.8 5.23-2.26-2.26L6 11.39z" fill="url(#paint1_linear_8728_433881)" fill-rule="evenodd"></path><path clip-rule="evenodd" d="M6 11.39l3.74 3.74 6.197-6.767h.003V9.76l-6.2 6.77L6 12.79v-1.4zm0 0z" fill="#D18800" fill-rule="evenodd"></path><defs><linearGradient gradientUnits="userSpaceOnUse" id="paint0_linear_8728_433881" x1="4" x2="19.5" y1="1.5" y2="22"><stop stop-color="#F4E72A"></stop><stop offset=".539" stop-color="#CD8105"></stop><stop offset=".68" stop-color="#CB7B00"></stop><stop offset="1" stop-color="#F4EC26"></stop><stop offset="1" stop-color="#F4E72A"></stop></linearGradient><linearGradient gradientUnits="userSpaceOnUse" id="paint1_linear_8728_433881" x1="5" x2="17.5" y1="2.5" y2="19.5"><stop stop-color="#F9E87F"></stop><stop offset=".406" stop-color="#E2B719"></stop><stop offset=".989" stop-color="#E2B719"></stop></linearGradient></defs></g></svg>
