<svg width="123" height="69" viewBox="0 0 123 69" fill="none" xmlns="http://www.w3.org/2000/svg">
<g clip-path="url(#clip0_2889_5016)">
<path fill-rule="evenodd" clip-rule="evenodd" d="M61.4378 13.8246C66.1366 13.8078 70.6959 15.4208 74.3388 18.3887C77.9816 21.3566 80.4827 25.4958 81.4159 30.101C82.3491 34.7062 81.6566 39.4926 79.4564 43.6444C77.2562 47.7963 73.6845 51.0569 69.3498 52.8706C65.0151 54.6843 60.1857 54.9388 55.6843 53.5909C51.183 52.243 47.2883 49.376 44.6638 45.4785C42.0393 41.5809 40.8474 36.8939 41.2913 32.2161C41.7351 27.5383 43.7872 23.1591 47.0978 19.8246C48.9747 17.9288 51.2079 16.4228 53.6689 15.3931C56.1299 14.3634 58.7701 13.8303 61.4378 13.8246V13.8246ZM1.04784 31.3246C4.22847 27.4605 7.67698 23.8248 11.3678 20.4446C25.7378 7.36463 42.0778 0.374629 58.9978 0.014629C75.9178 -0.345371 93.0878 5.93463 109.348 19.3346C113.808 23.0316 117.998 27.0418 121.888 31.3346C122.492 32.0153 122.846 32.8816 122.892 33.7907C122.937 34.6997 122.671 35.5971 122.138 36.3346C117.811 42.5026 112.633 48.0273 106.758 52.7446C94.4859 62.6618 79.2058 68.1102 63.4278 68.1946C47.536 68.1532 32.057 63.131 19.1678 53.8346C12.2727 48.9371 6.10786 43.0853 0.857844 36.4546C0.271214 35.7179 -0.0321531 34.7955 0.00270145 33.8544C0.0375561 32.9134 0.408327 32.0159 1.04784 31.3246V31.3246ZM16.6778 26.3246C14.0103 28.7485 11.4766 31.3156 9.08784 34.0146C13.3947 39.0537 18.3049 43.5441 23.7078 47.3846C35.2631 55.7334 49.1423 60.2549 63.3978 60.3146C77.3864 60.2285 90.9304 55.3906 101.808 46.5946C106.292 42.9968 110.322 38.8664 113.808 34.2946C110.818 31.1575 107.646 28.199 104.308 25.4346C89.5578 13.2746 74.0778 7.59463 59.1078 7.90463C44.1378 8.21463 29.6278 14.4946 16.6778 26.2846V26.3246ZM56.3678 18.5346C57.9244 18.5346 59.446 18.9962 60.7402 19.861C62.0344 20.7257 63.0431 21.9549 63.6388 23.3929C64.2344 24.831 64.3903 26.4134 64.0866 27.94C63.783 29.4666 63.0334 30.8689 61.9328 31.9696C60.8321 33.0702 59.4298 33.8197 57.9032 34.1234C56.3766 34.4271 54.7942 34.2712 53.3561 33.6756C51.9181 33.0799 50.6889 32.0712 49.8242 30.777C48.9594 29.4828 48.4978 27.9612 48.4978 26.4046C48.4965 25.3708 48.6992 24.3468 49.0942 23.3914C49.4893 22.4359 50.0689 21.5678 50.8 20.8368C51.531 20.1057 52.3991 19.5261 53.3546 19.131C54.31 18.736 55.334 18.5333 56.3678 18.5346V18.5346Z" fill="#9D9D9D"/>
</g>
<defs>
<clipPath id="clip0_2889_5016">
<rect width="122.88" height="68.18" fill="white"/>
</clipPath>
</defs>
</svg>
