<svg width="25" height="26" viewBox="0 0 25 26" fill="none" xmlns="http://www.w3.org/2000/svg">
<path d="M1.62563 1.16871C1.55772 1.16871 1.49934 1.1791 1.44965 1.1997C1.39768 1.22154 1.348 1.25648 1.30038 1.30432L1.2981 1.3064C1.25152 1.35319 1.21757 1.4029 1.19645 1.45553C1.1743 1.51064 1.16332 1.57782 1.16332 1.65749V23.9003C1.16332 23.98 1.1743 24.047 1.19665 24.1023C1.21777 24.1551 1.25173 24.2046 1.29831 24.2518L1.30059 24.2539C1.348 24.3017 1.39789 24.3367 1.44986 24.3583C1.49954 24.3791 1.55793 24.3895 1.62584 24.3895H20.4001C20.4792 24.3895 20.546 24.3781 20.6011 24.3562C20.6535 24.3346 20.7027 24.3005 20.7495 24.2539L20.7518 24.2518C20.7984 24.2046 20.8324 24.1551 20.8535 24.1023C20.8754 24.047 20.8866 23.98 20.8866 23.9003C20.8866 16.4863 20.8866 9.07197 20.8866 1.65749C20.8866 1.57803 20.8754 1.51064 20.8535 1.45553C20.8321 1.4029 20.7982 1.35319 20.7518 1.3064L20.7495 1.30411C20.7027 1.2571 20.6535 1.2232 20.6011 1.20198C20.546 1.17973 20.4792 1.1685 20.4001 1.1685H1.62563V1.16871ZM8.57492 9.04077V10.4062C7.89005 10.5816 7.92235 12.4666 8.68361 12.4666C8.91818 12.4622 10.0051 14.0488 10.1649 14.3132C10.4753 14.8267 10.1649 15.0147 10.1649 15.3654C6.83377 16.1206 5.87251 15.642 5.87251 19.0287H11.6933H17.5142C17.5142 15.642 16.5528 16.1206 13.2218 15.3654C13.2218 14.9486 12.9466 14.7687 13.2218 14.3132C13.5321 13.8 14.1007 13.0818 14.6849 12.4664C15.4876 12.4814 15.5079 10.5843 14.8116 10.4062V9.04077C14.8118 5.75118 8.57492 5.75118 8.57492 9.04077ZM1.00453 0.122299C1.19955 0.0405584 1.40617 0 1.62563 0H20.3999C20.6241 0 20.8346 0.0397264 21.0323 0.120219C21.2317 0.201128 21.4102 0.320723 21.5692 0.479837L21.5694 0.480045L21.5706 0.481085L21.5719 0.482333C21.7305 0.64207 21.8497 0.821359 21.93 1.02166C22.0102 1.2205 22.0495 1.43181 22.0495 1.65728V4.04856H23.5039C23.6122 4.04856 23.7134 4.07185 23.8109 4.11782C23.9211 4.16982 24.007 4.24137 24.0747 4.33247L24.0733 4.33351C24.1258 4.40422 24.1652 4.47806 24.1904 4.55876L24.1884 4.55939C24.2138 4.64029 24.2271 4.71954 24.2271 4.79941V8.08817C24.2271 8.1618 24.2136 8.23585 24.1863 8.3076C24.1759 8.33672 24.1633 8.36522 24.148 8.3933C24.107 8.46838 24.0501 8.53681 23.9774 8.59359C23.9399 8.62417 23.9002 8.65017 23.8581 8.67159L23.8577 8.67076L23.8559 8.67159C23.7631 8.71818 23.6691 8.74168 23.5726 8.74168H22.0493V10.4306H23.5037C23.6134 10.4306 23.7153 10.4537 23.813 10.4998L23.8126 10.5007C23.9215 10.5525 24.007 10.6236 24.0747 10.7143L24.0733 10.7155C24.1194 10.7775 24.1548 10.8414 24.1795 10.9071C24.2111 10.9922 24.2271 11.0768 24.2271 11.161V14.47C24.2271 14.5688 24.2039 14.6642 24.1573 14.7568C24.1242 14.8225 24.0826 14.8816 24.0323 14.9319L24.031 14.9307C23.9764 14.9856 23.9178 15.0286 23.8557 15.0594L23.8546 15.0578C23.7621 15.1041 23.6681 15.1272 23.5724 15.1272H22.0491V16.8163H23.5035C23.5911 16.8163 23.6741 16.8309 23.7561 16.8598C23.8621 16.8972 23.9484 16.9519 24.02 17.0239L24.0194 17.0243C24.0935 17.0975 24.1482 17.1859 24.1834 17.2876H24.1828L24.1834 17.2897C24.2124 17.3733 24.2269 17.4588 24.2269 17.5433V20.8272C24.2269 20.8861 24.219 20.9454 24.2031 21.0055C24.1989 21.0217 24.1944 21.0384 24.189 21.055C24.1561 21.1542 24.1035 21.2395 24.0323 21.3112C23.9793 21.3645 23.9213 21.4071 23.8579 21.4392C23.7658 21.486 23.6708 21.509 23.5724 21.509H22.0491V23.9001C22.0491 24.1256 22.0098 24.3369 21.9296 24.5359C21.8491 24.7358 21.7303 24.9149 21.5719 25.0746L21.5713 25.0755L21.5696 25.0771L21.5688 25.0776C21.4098 25.2373 21.2313 25.3571 21.0317 25.4378C20.834 25.5183 20.6235 25.558 20.3992 25.558H1.62563C1.40597 25.558 1.19955 25.5175 1.00453 25.4353C0.812814 25.3552 0.638906 25.2363 0.480939 25.0782L0.480318 25.0774L0.479076 25.0765L0.478041 25.0753C0.319246 24.9155 0.200202 24.736 0.119665 24.5357C0.0395434 24.3371 0 24.1258 0 23.9003V1.65749C0 1.43223 0.0395434 1.2207 0.119458 1.02186C0.200202 0.821567 0.319246 0.642486 0.477627 0.482749L0.478041 0.482541L0.478662 0.481709L0.480111 0.480253C0.638285 0.321763 0.8124 0.202792 1.00453 0.122299Z" fill="#4D4D4D" fill-opacity="0.95"/>
</svg>
