<svg width="43" height="42" viewBox="0 0 43 42" fill="none" xmlns="http://www.w3.org/2000/svg">
<circle cx="21.6275" cy="21.1678" r="20.8213" fill="#A90000"/>
<path fill-rule="evenodd" clip-rule="evenodd" d="M32.2914 24.6537C31.909 25.8182 30.2672 27.8537 27.7986 29.6286C27.4922 29.41 27.1915 29.183 26.897 28.948C26.4098 28.5498 25.9422 28.1274 25.4958 27.6823C24.3173 26.5116 23.5515 25.4044 23.305 24.6537C23.0762 23.9347 23.1379 23.1204 23.4712 22.5352C23.7673 22.0256 24.237 21.7081 24.885 21.5804C24.9653 21.5681 25.0457 21.5614 25.126 21.5614C26.3166 21.5614 26.884 23.324 26.9157 23.426C26.9732 23.6183 27.0902 23.7866 27.2493 23.9059C27.4084 24.0251 27.601 24.089 27.7986 24.088C28.1993 24.088 28.5574 23.8203 28.6807 23.4255C28.7054 23.3368 29.3353 21.3769 30.6562 21.5743C30.674 21.5743 30.6926 21.5804 30.7113 21.5804C31.3594 21.7081 31.8286 22.0256 32.1243 22.5352C32.1499 22.5728 32.1681 22.6182 32.1798 22.6558C32.4641 23.2286 32.5076 23.986 32.2918 24.6537H32.2914ZM21.6259 30.8951C16.0401 26.8419 12.0895 21.6383 11.1767 18.6927C10.5711 16.7641 10.763 14.5949 11.6637 13.0236C12.4355 11.6877 13.6878 10.8093 15.287 10.4979C15.529 10.4484 15.7751 10.423 16.0219 10.422C17.651 10.422 18.8118 11.5543 19.5766 12.7118C20.3428 13.8702 20.7126 15.0533 20.7434 15.1553C20.7993 15.3495 20.9154 15.5202 21.0745 15.6417C21.2336 15.7633 21.427 15.8292 21.6259 15.8296C22.034 15.8296 22.3912 15.5558 22.5084 15.1553C22.577 14.9389 24.2001 9.74098 27.9649 10.4979C29.5636 10.8093 30.8164 11.6877 31.5877 13.0236C32.4885 14.5949 32.6808 16.7641 32.0752 18.6927C31.9645 19.0486 31.8104 19.4434 31.6125 19.8563C31.4292 19.7915 31.2415 19.7405 31.0508 19.704C29.5814 19.4244 28.5018 20.1937 27.7986 21.1291C27.095 20.1937 26.0145 19.4244 24.5452 19.7035C23.3666 19.9332 22.4472 20.5753 21.8794 21.5681C21.2683 22.6306 21.1506 24.0049 21.5521 25.2516C21.9038 26.3394 22.8292 27.6567 24.095 28.9418C23.2995 29.628 22.4757 30.2795 21.6259 30.8947V30.8951ZM33.1925 20.8557C33.4704 20.2891 33.6865 19.7605 33.8406 19.2778C34.6124 16.8091 34.3594 14.1117 33.18 12.0507C32.1308 10.2312 30.4526 9.04763 28.3169 8.62103C25.0704 7.97891 22.8483 10.2815 21.6259 12.502C20.4036 10.282 18.1819 7.97891 14.935 8.62103C12.7993 9.04763 11.1211 10.2312 10.0715 12.0507C8.89295 14.1117 8.63901 16.8087 9.41081 19.2778C10.4787 22.7004 14.8369 28.4578 21.1076 32.8418C21.2617 32.9496 21.4471 33.0074 21.6259 33.0074C21.8052 33.0074 21.9897 32.9496 22.1442 32.8418C23.3046 32.0291 24.4232 31.1562 25.4954 30.2265C26.0697 30.7109 26.6694 31.1635 27.2916 31.5823C27.4461 31.6839 27.6193 31.7347 27.7986 31.7347C27.9775 31.7347 28.1502 31.6839 28.3043 31.5823C31.1311 29.6732 33.4395 27.1285 34.0442 25.2516C34.4457 24.0049 34.3285 22.6306 33.7178 21.5681C33.5709 21.3104 33.3946 21.0713 33.1925 20.8557Z" fill="white"/>
</svg>
